<svg width="41" height="36" viewBox="0 0 41 36" fill="none" xmlns="http://www.w3.org/2000/svg">
<path d="M4.11451 12.5285C4.03131 12.4849 3.94863 12.4403 3.86648 12.3948C2.38224 11.5686 1.56106 9.95636 1.11962 8.37376C0.567323 6.39379 0.66973 4.20285 1.69973 2.39192C2.01777 1.83269 2.41943 1.35385 3.07334 1.18832C4.98456 0.70451 8.22573 2.748 9.83408 3.7466C9.34624 4.23007 8.84392 4.70708 8.4068 5.23768C7.45462 4.13356 6.00314 2.81827 4.4797 2.7124C3.95575 2.67603 3.44736 2.8087 3.05035 3.16549C2.34887 3.79591 2.11634 4.9708 2.08297 5.86818C2.03121 7.25972 2.45979 8.6659 3.42966 9.6899C3.9253 10.2132 4.45935 10.3301 5.07932 10.6435C5.0274 10.7342 4.993 10.8236 4.95832 10.922C4.81932 11.3338 4.60577 12.2905 4.18675 12.4961C4.16304 12.5077 4.13875 12.5181 4.11451 12.5285Z" fill="#241F20"/>
<path d="M5.07932 10.6435C4.45935 10.33 3.9253 10.2131 3.42966 9.68984C2.45979 8.66584 2.03121 7.25966 2.08297 5.86812C2.11634 4.97074 2.34887 3.79585 3.05035 3.16543C3.44736 2.80865 3.95575 2.67598 4.4797 2.71234C6.00314 2.81821 7.45462 4.1335 8.4068 5.23762C8.28215 5.39646 8.16432 5.57457 7.99965 5.69366L7.98044 5.72715L7.5052 6.23841C7.0889 6.87713 6.62632 7.48139 6.24323 8.14255C5.90333 8.72922 5.63806 9.36724 5.29098 9.94413C5.23109 10.1173 5.16823 10.2894 5.10239 10.4604L5.07932 10.6435Z" fill="#060202"/>
<path d="M5.10239 10.4605C4.67525 10.2534 4.32419 9.99738 3.99722 9.65101C3.14087 8.74392 2.67422 7.36145 2.71937 6.12234C2.74541 5.40765 2.95117 4.58223 3.50624 4.0894C3.85352 3.78108 4.28064 3.66628 4.73833 3.70455C5.78051 3.79149 7.32547 4.89639 7.99965 5.69373L7.98045 5.72722L7.5052 6.23848C7.48867 6.22786 7.47193 6.21759 7.45554 6.20675C7.29093 6.09828 7.14595 5.93945 6.99324 5.81346C6.3619 5.29235 5.57236 4.73319 4.70284 4.87915C4.37836 4.9336 4.10779 5.10763 3.91817 5.37557C3.51553 5.94465 3.53387 6.81038 3.66446 7.46591C3.8364 8.32903 4.3268 9.33938 5.08614 9.83165C5.15318 9.87512 5.21874 9.91051 5.29098 9.9442C5.2311 10.1174 5.16823 10.2895 5.10239 10.4605Z" fill="#EBD1A7"/>
<path d="M5.291 9.94414C5.21876 9.91045 5.1532 9.87506 5.08616 9.83159C4.32682 9.33932 3.83642 8.32897 3.66448 7.46585C3.53389 6.81032 3.51556 5.94459 3.91819 5.37551C4.10781 5.10757 4.37838 4.93354 4.70286 4.87909C5.57238 4.73313 6.36192 5.29229 6.99326 5.8134C7.14598 5.93939 7.29095 6.09822 7.45556 6.20669C7.47195 6.21753 7.48869 6.2278 7.50522 6.23842C7.08893 6.87714 6.62634 7.4814 6.24325 8.14256C5.90335 8.72923 5.63808 9.36725 5.291 9.94414Z" fill="#DAB787"/>
<path d="M31.7781 3.96119C33.5213 2.84349 35.2173 1.8074 37.2774 1.38752C37.8164 1.27765 38.4194 1.18803 38.9636 1.31571C39.4194 1.42265 39.7373 1.71061 39.9771 2.10291C40.9449 3.68621 41.1887 6.34641 40.7506 8.12133C40.7364 8.18014 40.7214 8.23876 40.7057 8.29719C40.69 8.35562 40.6736 8.41385 40.6565 8.47186C40.6394 8.52987 40.6216 8.58767 40.603 8.64525C40.5845 8.70284 40.5652 8.7602 40.5453 8.81732C40.5253 8.87439 40.5046 8.93122 40.4832 8.98783C40.4619 9.04443 40.4398 9.10075 40.4171 9.1568C40.3943 9.21288 40.3709 9.26867 40.3468 9.32414C40.3226 9.37962 40.2978 9.43477 40.2724 9.48959C40.2468 9.54446 40.2207 9.59902 40.1939 9.65328C40.167 9.7075 40.1395 9.76136 40.1113 9.81486C40.0832 9.86842 40.0543 9.92162 40.0249 9.97447C39.9954 10.0273 39.9653 10.0797 39.9345 10.1318C39.9037 10.1839 39.8723 10.2356 39.8403 10.2869C39.8083 10.3382 39.7756 10.3892 39.7422 10.4397C39.7089 10.4902 39.675 10.5403 39.6405 10.5899C39.606 10.6396 39.5708 10.6888 39.5351 10.7376C39.4993 10.7864 39.463 10.8348 39.426 10.8827C39.3891 10.9306 39.3516 10.978 39.3134 11.025C39.2753 11.072 39.2367 11.1185 39.1974 11.1645C39.1581 11.2105 39.1183 11.2561 39.0779 11.3011C39.0375 11.3462 38.9966 11.3907 38.9551 11.4347C38.9136 11.4787 38.8716 11.5222 38.829 11.5652C38.7865 11.6082 38.7434 11.6507 38.6998 11.6926C38.6562 11.7346 38.6121 11.7759 38.5674 11.8168C38.5228 11.8576 38.4777 11.8979 38.4321 11.9377C38.3865 11.9774 38.3404 12.0166 38.2938 12.0552C38.2472 12.0938 38.2002 12.1318 38.1526 12.1692C38.1051 12.2066 38.0571 12.2435 38.0087 12.2797C37.9602 12.316 37.9114 12.3516 37.8621 12.3867C37.8128 12.4217 37.763 12.4562 37.7129 12.49C37.6627 12.5238 37.6121 12.557 37.5612 12.5896C37.5102 12.6221 37.4588 12.6541 37.407 12.6854C37.2568 12.7762 37.0798 12.894 36.9112 12.9439C36.7072 12.2825 36.5862 11.5977 36.3772 10.9388C35.7857 9.07428 34.7537 7.37301 33.5333 5.85597C33.2301 5.47907 32.8857 5.1353 32.542 4.79575C32.2896 4.54638 31.9854 4.29187 31.7958 3.99052C31.7897 3.98088 31.784 3.97096 31.7781 3.96119Z" fill="#241F20"/>
<path d="M34.7519 4.77612C35.38 4.26121 36.8312 3.40111 37.6609 3.48904C37.9447 3.51915 38.1769 3.66814 38.3501 3.89134C38.6711 4.30503 38.8417 4.95853 38.926 5.46409L38.8864 5.47534C38.803 5.44446 38.3926 4.67884 38.2558 4.53956C37.5182 3.78927 36.2575 4.36419 35.4238 4.63122C35.2413 4.68974 35.0024 4.78682 34.812 4.77992C34.7919 4.77922 34.772 4.77739 34.7519 4.77612Z" fill="#FCF7E2"/>
<path d="M34.7519 4.77617C34.772 4.77743 34.7919 4.77926 34.812 4.77997C35.0024 4.78686 35.2413 4.68978 35.4238 4.63126C36.2575 4.36423 37.5182 3.78931 38.2558 4.5396C38.3926 4.67888 38.803 5.44451 38.8864 5.47539L38.926 5.46413C39.2349 6.65358 39.0948 7.94341 38.464 9.0113C38.3504 9.20362 38.2247 9.39263 38.0747 9.55865C38.0031 9.35155 38.3683 8.44144 38.3613 8.05293C38.355 7.69812 38.2389 7.298 38.0971 6.97435C37.8379 6.3824 37.3952 5.86671 36.7806 5.63211C36.1971 5.4094 35.3742 5.41827 34.8039 5.66672C34.5228 5.78912 34.2724 5.96702 33.9922 6.09062C33.9812 6.09554 33.97 6.10018 33.9589 6.1049C33.844 6.00325 33.7428 5.88015 33.6388 5.7671C33.9712 5.4208 34.3201 4.99698 34.7519 4.77617Z" fill="#EBD1A7"/>
<path d="M33.9589 6.10489C33.97 6.10018 33.9811 6.09554 33.9922 6.09061C34.2724 5.96702 34.5228 5.78912 34.8039 5.66672C35.3742 5.41826 36.1971 5.4094 36.7806 5.63211C37.3952 5.86671 37.8379 6.3824 38.0971 6.97434C38.2389 7.298 38.355 7.69811 38.3613 8.05293C38.3683 8.44144 38.0031 9.35155 38.0747 9.55864C37.6086 10.0717 37.1815 10.3578 36.5493 10.6437C36.0612 9.46727 35.5089 8.35407 34.8043 7.29012C34.5363 6.8855 34.2312 6.5067 33.9589 6.10489Z" fill="#DAB787"/>
<path d="M30.7128 3.08264C31.1024 3.31485 31.5104 3.58701 31.7781 3.96117C31.784 3.97095 31.7897 3.98086 31.7958 3.9905C31.9854 4.29186 32.2897 4.54636 32.5421 4.79573C32.8857 5.13528 33.2302 5.47905 33.5333 5.85595C34.7537 7.37299 35.7857 9.07426 36.3772 10.9387C36.5862 11.5976 36.7072 12.2824 36.9112 12.9439C36.9347 13.0264 36.9494 13.1209 37.0305 13.1649C37.288 13.3046 37.6775 13.2671 37.9637 13.3394C38.9723 13.594 39.9376 14.472 40.3104 15.4379C40.4255 15.736 40.4795 16.0385 40.504 16.3559C39.7399 15.9662 39.1881 15.8125 38.3326 15.9262C39.3988 16.3492 40.2781 17.0687 40.7361 18.1408C41.0481 18.8714 41.0284 19.5775 40.9534 20.3508C40.6609 19.7506 40.3365 19.2837 39.6673 19.0583C39.2228 18.9087 38.7688 18.9247 38.3067 18.9408C39.097 19.2942 39.6342 19.8486 39.9422 20.6648C40.3715 21.8027 40.149 22.9381 39.696 24.0246C39.4261 23.3058 39.129 22.7362 38.3931 22.4023C38.122 22.2793 37.8367 22.2104 37.5472 22.1454C38.1331 22.6981 38.5313 23.4201 38.5597 24.2361C38.5938 25.2143 38.0909 25.9724 37.5647 26.7498C37.3204 26.2739 37.0636 25.8732 36.7056 25.4747C35.9892 26.2476 35.1633 26.8926 34.2893 27.4771C34.0438 27.6413 33.3796 27.9509 33.2201 28.1272C33.0602 28.2226 32.9024 28.3133 32.7342 28.3937L32.6324 28.4913C32.4005 28.5133 30.8322 29.3241 30.4321 29.4784C29.6916 29.764 28.9374 30.0302 28.169 30.2304C27.7204 30.3474 27.2559 30.4114 26.8133 30.5483C26.8039 31.1975 26.5513 31.9959 26.2392 32.5654C25.7829 33.0943 25.3812 33.611 24.8127 34.0334C23.3989 35.0842 21.439 35.5667 19.6983 35.3092C17.0256 34.9138 15.4602 33.061 13.9607 31.0357C13.7388 31.6466 13.4425 32.2986 13.3004 32.9302C13.1929 32.9832 13.1898 32.9698 13.0724 32.9371C13.1242 32.6826 13.1861 32.4115 13.1528 32.1515C13.3819 31.5277 13.5298 30.8682 13.7489 30.2379C13.0728 30.0283 12.3766 29.8857 11.7017 29.6666C8.89464 28.755 6.31147 27.3587 4.1964 25.2799C3.6078 25.7777 3.38306 26.2383 3.22064 26.984C3.1154 26.8274 3.01116 26.6681 2.92099 26.5023C2.20244 25.1808 2.36381 23.8154 2.76752 22.4229C2.12271 22.7222 1.59703 23.062 1.09063 23.5596C0.92845 23.0211 0.852239 22.4801 0.898687 21.917C1.00114 20.675 1.72682 19.7758 2.64902 19.0002C1.62908 19.1926 0.77505 19.4162 0 20.148C0.298245 18.05 0.918383 17.1783 2.54839 15.9053C1.66461 15.6732 0.96206 15.9308 0.153392 16.2783C0.910392 15.0431 1.83624 14.0223 3.03739 13.2013C3.38698 12.9625 3.76549 12.7684 4.11451 12.5284C4.13876 12.518 4.16305 12.5076 4.18676 12.496C4.60577 12.2905 4.81933 11.3337 4.95833 10.9219L5.08594 11.0025C4.74719 11.5208 3.48277 15.2783 3.56974 15.8604C3.58218 15.9436 3.61814 15.9936 3.66369 16.0622C3.50727 16.6384 3.34596 17.2108 3.27295 17.805C3.07552 19.4119 3.46676 21.1657 4.26389 22.5681C5.82645 25.3173 8.48179 26.818 11.4537 27.628C11.8024 27.723 12.2049 27.8337 12.5677 27.7777C12.7854 27.8242 13.0027 27.8831 13.2264 27.8793C14.129 29.6146 15.2827 31.1479 17.069 32.045C17.1113 32.0662 17.1539 32.0869 17.1966 32.1071C17.2395 32.1272 17.2825 32.1469 17.3258 32.166C17.3691 32.185 17.4126 32.2036 17.4564 32.2217C17.5001 32.2397 17.544 32.2571 17.5882 32.2741C17.6324 32.291 17.6767 32.3075 17.7213 32.3233C17.7659 32.3392 17.8106 32.3545 17.8556 32.3693C17.9005 32.384 17.9457 32.3982 17.991 32.4118C18.0363 32.4255 18.0817 32.4385 18.1273 32.4511C18.1729 32.4636 18.2187 32.4755 18.2646 32.4869C18.3105 32.4983 18.3566 32.5092 18.4028 32.5194C18.449 32.5297 18.4953 32.5394 18.5417 32.5485C18.5881 32.5576 18.6346 32.5662 18.6813 32.5742C18.7279 32.5821 18.7746 32.5895 18.8214 32.5964C18.8682 32.6032 18.9151 32.6094 18.9621 32.6151C19.0091 32.6208 19.0561 32.6259 19.1032 32.6304C19.1503 32.6349 19.1974 32.6389 19.2446 32.6423C19.2917 32.6456 19.339 32.6483 19.3862 32.6506C19.4335 32.6528 19.4808 32.6544 19.5281 32.6554C19.5754 32.6564 19.6227 32.6569 19.67 32.6567C19.7173 32.6566 19.7646 32.6559 19.8119 32.6546C19.8592 32.6533 19.9064 32.6514 19.9537 32.649C20.0009 32.6465 20.0481 32.6435 20.0953 32.6399C20.1425 32.6363 20.1896 32.6321 20.2366 32.6273C20.2837 32.6225 20.3307 32.6171 20.3777 32.6112C20.4246 32.6053 20.4715 32.5988 20.5182 32.5917C20.565 32.5846 20.6117 32.5769 20.6583 32.5687C20.7048 32.5604 20.7513 32.5516 20.7977 32.5422C20.8441 32.5328 20.8903 32.5229 20.9364 32.5124C20.9826 32.5018 21.0285 32.4908 21.0744 32.4791C21.1202 32.4675 21.1659 32.4552 21.2115 32.4425C21.257 32.4297 21.3024 32.4163 21.3476 32.4025C21.3929 32.3886 21.4379 32.3741 21.4828 32.3591C23.6681 31.6149 24.8323 29.8076 25.7923 27.8374C26.1368 27.7186 26.4913 27.6298 26.835 27.5063C27.1851 27.384 27.5311 27.2509 27.8729 27.1072C28.2147 26.9634 28.5518 26.8092 28.884 26.6445C29.2163 26.4799 29.5431 26.3051 29.8645 26.1201C30.186 25.9351 30.5013 25.7404 30.8107 25.5359C31.5793 25.0189 33.7492 23.219 33.9117 22.3876L34.0885 22.2962C34.6833 22.0298 35.1991 21.4374 35.5714 20.918C35.6932 20.7482 35.909 20.301 36.0763 20.2135C36.337 19.713 36.2843 18.3411 36.2284 17.7581C36.1193 16.6216 35.8564 15.7658 35.5137 14.6934C35.412 14.3752 35.2864 13.8149 35.0187 13.5942L34.9486 13.6134C34.7894 13.2577 34.6362 12.9077 34.5 12.5426C34.3896 12.151 34.3864 11.3139 34.3296 10.853C34.1411 9.32427 33.7667 7.76706 33.104 6.37228C32.7254 5.57563 32.1946 4.71772 31.598 4.06689C31.356 3.80289 30.7769 3.4293 30.7128 3.08264Z" fill="#FB6103"/>
<path d="M34.5 12.5426C35.05 12.8008 36.0882 15.0857 36.3147 15.7065C37.0781 17.7985 37.1204 20.0427 36.1613 22.0784C34.9055 24.7438 32.4965 26.2896 29.8024 27.2456C28.7586 27.616 27.6049 27.9486 26.5067 28.092C26.518 28.0859 26.5292 28.0796 26.5405 28.0736C26.8533 27.9121 27.2421 27.8453 27.5803 27.7468C27.9115 27.6479 28.2381 27.5353 28.5598 27.409C31.7674 26.1683 34.6782 24.572 35.8431 21.0923C35.9397 20.8043 36.0174 20.5114 36.0763 20.2135C36.337 19.713 36.2843 18.3411 36.2284 17.7581C36.1193 16.6216 35.8564 15.7658 35.5137 14.6934C35.412 14.3752 35.2864 13.8149 35.0187 13.5942L34.9486 13.6134C34.7894 13.2577 34.6362 12.9078 34.5 12.5426Z" fill="#060202"/>
<path d="M9.83408 3.74657C11.8591 1.89489 14.7421 0.759174 17.413 0.26806C20.9252 -0.37774 24.5362 0.179793 27.8072 1.54857C28.8067 1.96681 29.818 2.46772 30.7127 3.08267C30.7769 3.42932 31.356 3.80292 31.598 4.06692C32.1946 4.71774 32.7254 5.57566 33.104 6.3723C33.7667 7.76709 34.1411 9.32429 34.3296 10.853C34.3864 11.314 34.3896 12.1511 34.5 12.5426C34.6362 12.9078 34.7894 13.2577 34.9486 13.6134L35.0186 13.5942C35.2864 13.8149 35.412 14.3752 35.5137 14.6934C35.8564 15.7658 36.1192 16.6216 36.2284 17.7581C36.2843 18.3411 36.337 19.713 36.0763 20.2135C35.909 20.301 35.6932 20.7482 35.5714 20.918C35.1991 21.4374 34.6833 22.0298 34.0885 22.2962L33.9116 22.3876C33.7491 23.2191 31.5792 25.0189 30.8107 25.5359C30.5013 25.7404 30.186 25.9352 29.8645 26.1201C29.5431 26.3051 29.2163 26.4799 28.884 26.6445C28.5518 26.8092 28.2147 26.9635 27.8729 27.1072C27.5311 27.251 27.1851 27.384 26.835 27.5063C26.4913 27.6298 26.1368 27.7186 25.7923 27.8374C24.8323 29.8076 23.6681 31.6149 21.4828 32.3591C21.4379 32.3741 21.3928 32.3886 21.3476 32.4025C21.3024 32.4164 21.257 32.4297 21.2115 32.4425C21.1659 32.4553 21.1202 32.4675 21.0744 32.4792C21.0285 32.4908 20.9826 32.5019 20.9364 32.5124C20.8903 32.5229 20.8441 32.5329 20.7977 32.5422C20.7513 32.5516 20.7048 32.5604 20.6583 32.5687C20.6117 32.5769 20.565 32.5846 20.5182 32.5917C20.4715 32.5988 20.4246 32.6053 20.3777 32.6112C20.3307 32.6171 20.2837 32.6225 20.2366 32.6273C20.1896 32.6321 20.1425 32.6363 20.0953 32.6399C20.0481 32.6435 20.0009 32.6465 19.9537 32.649C19.9064 32.6515 19.8592 32.6533 19.8119 32.6547C19.7646 32.6559 19.7173 32.6566 19.67 32.6568C19.6227 32.6569 19.5754 32.6565 19.528 32.6554C19.4808 32.6544 19.4335 32.6528 19.3862 32.6506C19.339 32.6484 19.2917 32.6456 19.2446 32.6423C19.1974 32.6389 19.1503 32.635 19.1032 32.6305C19.0561 32.6259 19.0091 32.6208 18.9621 32.6151C18.9151 32.6095 18.8682 32.6032 18.8214 32.5964C18.7746 32.5896 18.7279 32.5822 18.6812 32.5742C18.6346 32.5662 18.5881 32.5577 18.5417 32.5485C18.4953 32.5394 18.4489 32.5297 18.4028 32.5195C18.3566 32.5092 18.3105 32.4984 18.2646 32.487C18.2187 32.4756 18.1729 32.4636 18.1273 32.4511C18.0817 32.4386 18.0363 32.4255 17.991 32.4118C17.9457 32.3982 17.9005 32.384 17.8555 32.3693C17.8106 32.3545 17.7659 32.3392 17.7213 32.3233C17.6767 32.3075 17.6323 32.2911 17.5882 32.2741C17.544 32.2572 17.5001 32.2397 17.4563 32.2217C17.4126 32.2036 17.3691 32.1851 17.3258 32.166C17.2825 32.1469 17.2395 32.1273 17.1966 32.1071C17.1539 32.0869 17.1113 32.0663 17.069 32.0451C15.2826 31.1479 14.129 29.6147 13.2264 27.8793C13.0027 27.8832 12.7854 27.8242 12.5676 27.7777C12.2049 27.8338 11.8024 27.723 11.4537 27.628C8.48179 26.818 5.82644 25.3174 4.26388 22.5682C3.46676 21.1657 3.07551 19.4119 3.27294 17.805C3.34595 17.2108 3.50726 16.6384 3.66368 16.0622C3.61814 15.9936 3.58218 15.9436 3.56973 15.8604C3.48277 15.2783 4.74719 11.5208 5.08593 11.0026L4.95833 10.9219C4.99301 10.8236 5.0274 10.7341 5.07932 10.6435L5.10239 10.4604C5.16823 10.2894 5.2311 10.1173 5.29098 9.94416C5.63806 9.36727 5.90333 8.72925 6.24323 8.14258C6.62632 7.48142 7.0889 6.87716 7.5052 6.23844L7.98044 5.72718L7.99965 5.69369C8.16432 5.5746 8.28215 5.39649 8.4068 5.23765C8.84392 4.70705 9.34625 4.23005 9.83408 3.74657Z" fill="#FD911E"/>
<path d="M11.5762 4.02039C11.6402 4.02545 11.7223 4.03685 11.7789 4.07174C11.866 4.12534 11.873 4.14539 11.8952 4.2381C11.8672 4.3083 11.8334 4.34467 11.7752 4.39018C11.5708 4.54965 11.3194 4.66861 11.0971 4.80374C10.7923 4.98909 10.5084 5.19436 10.2256 5.41081C10.1725 5.454 10.1371 5.47369 10.0712 5.49184L10.0357 5.44584C10.0465 5.4056 10.0497 5.38823 10.0642 5.35172C10.2957 4.76948 11.0304 4.26898 11.5762 4.02039Z" fill="#060202"/>
<path d="M28.2329 3.91638C28.3418 3.90682 28.4703 3.90105 28.5768 3.92715C28.9786 4.02584 29.3403 4.43609 29.5579 4.77374C29.7128 5.01403 29.8726 5.34599 29.8098 5.63665C29.5654 5.37546 29.3527 5.07045 29.0928 4.82699C28.8624 4.61103 28.3747 4.42314 28.2216 4.16287C28.1707 4.07635 28.2101 4.00565 28.2329 3.91638Z" fill="#060202"/>
<path d="M7.98046 5.72717C7.94986 6.12736 7.15413 7.03367 6.92368 7.43295C6.45583 8.24373 6.04966 9.10312 5.6309 9.94057C5.45406 10.2943 5.28966 10.6643 5.08595 11.0026L4.95834 10.9219C4.99302 10.8236 5.02742 10.7341 5.07933 10.6435L5.10241 10.4604C5.16825 10.2894 5.23111 10.1173 5.291 9.94416C5.63808 9.36726 5.90334 8.72924 6.24325 8.14258C6.62634 7.48141 7.08892 6.87716 7.50522 6.23843L7.98046 5.72717Z" fill="#E45104"/>
<path d="M7.47839 16.6566C7.87668 16.817 8.20955 17.0723 8.59602 17.25C9.40026 17.6195 10.2492 17.9085 11.0767 18.2221C11.4771 18.3738 11.8697 18.5653 12.2756 18.6976C12.7063 18.8782 14.392 19.4897 14.5658 19.8404C14.5927 19.8948 14.5767 19.9166 14.5654 19.9721C14.5023 20.0234 14.4668 20.0537 14.3787 20.0522C14.2292 20.0496 13.9521 19.7357 13.7786 19.649C13.2171 19.3683 12.5925 19.1828 12.0118 18.9418L11.9789 18.9304C10.9553 18.5725 8.4369 17.7066 7.71967 17.054C7.60783 16.9522 7.54339 16.791 7.47839 16.6566Z" fill="#060202"/>
<path d="M26.1101 18.555C26.4634 18.3316 27.0115 18.1779 27.4107 18.0396C29.0228 17.4806 31.7572 16.7219 33.3497 17.4924L33.3458 17.6038C31.286 17.5092 29.3024 17.81 27.3437 18.449C27.0007 18.5609 26.5839 18.6648 26.2677 18.8359C25.9226 18.9712 25.5691 19.1103 25.2405 19.2823C24.9153 19.4525 24.599 19.6594 24.2662 19.8123C24.1553 19.8632 24.0566 19.8778 23.9407 19.8357L23.9196 19.7745C24.0985 19.3622 25.653 18.7509 26.1101 18.555Z" fill="url(#paint0_linear_2_665)"/>
<path d="M34.5878 20.1571C34.7879 20.7457 33.9721 21.9776 34.0885 22.2962L33.9117 22.3876C33.3451 22.6177 32.7354 22.7248 32.1284 22.613C31.3077 22.4617 30.6315 21.8864 30.1671 21.2175C30.6689 21.4003 31.1933 21.4989 31.7283 21.485C32.8525 21.4557 33.819 20.9662 34.5878 20.1571Z" fill="#241F20"/>
<path d="M34.9486 13.6134L35.0186 13.5942C35.2864 13.8149 35.412 14.3752 35.5137 14.6934C35.8564 15.7658 36.1192 16.6216 36.2284 17.7581C36.2843 18.3411 36.337 19.713 36.0763 20.2135C35.909 20.301 35.6932 20.7482 35.5714 20.918C35.1991 21.4374 34.6833 22.0298 34.0885 22.2962C33.9721 21.9776 34.7879 20.7457 34.5878 20.1571C34.7798 19.9066 34.9698 19.6575 35.1235 19.3808C36.1201 17.5854 35.4801 15.4482 34.9486 13.6134Z" fill="#1E1211"/>
<path d="M19.5361 4.42386C19.8405 4.40578 20.1291 4.42076 20.4313 4.46311C21.7806 4.65219 22.9164 5.30442 23.7377 6.38751C22.5734 5.88765 21.3673 5.52931 20.0992 5.43322C18.8129 5.29837 16.9445 5.73408 15.7473 6.27369C15.8299 6.10332 15.9141 5.9499 16.0389 5.80612C16.871 4.84768 18.3243 4.49694 19.5361 4.42386Z" fill="#241F20"/>
<path d="M12.3779 5.57804C12.7439 5.53478 13.0518 5.57889 13.3644 5.78739C13.5894 5.93743 13.7916 6.16647 13.8336 6.44194C13.8637 6.6396 13.8002 6.83565 13.6726 6.98753C13.2038 7.5455 11.9367 7.57975 11.2546 7.64883C10.8749 7.71798 10.372 7.80155 10.0028 7.65143C9.90507 7.61169 9.80405 7.54346 9.77247 7.43695C9.71507 7.24386 9.84387 7.01496 9.94791 6.86161C10.4672 6.09627 11.5121 5.73843 12.3779 5.57804Z" fill="#1E1211"/>
<path d="M24.3204 14.3615C23.946 13.8554 24.0376 12.9311 24.1273 12.347C24.3024 11.2066 24.9106 10.0733 25.8512 9.38651C26.5665 8.86427 27.4656 8.61427 28.3445 8.76136C29.2407 8.9114 29.9968 9.37757 30.5229 10.1185C31.1737 11.0351 31.3253 12.2005 31.1319 13.2901C31.0745 13.6138 30.915 14.4185 30.6181 14.616C30.6084 14.6225 30.5972 14.6269 30.5868 14.6323C30.7775 14.0561 30.8722 13.4698 30.8282 12.8621C30.7569 11.8783 30.3616 10.8466 29.5971 10.1929C28.9758 9.66155 28.1948 9.38559 27.3778 9.45263C26.5701 9.51889 25.8586 9.94131 25.3411 10.5541C24.4201 11.6449 24.21 12.9789 24.3204 14.3615Z" fill="#060202"/>
<path d="M26.7635 5.40056C26.8547 5.39409 26.9458 5.3951 27.0369 5.40359C27.9465 5.4816 29.1235 6.17125 29.6914 6.87364C29.8205 7.03332 29.97 7.2682 29.938 7.48471C29.9242 7.57792 29.8739 7.65192 29.7977 7.70581C29.5398 7.88835 29.17 7.83348 28.8785 7.79275C28.0226 7.62526 26.8721 7.65748 26.0904 7.32032C25.871 7.22571 25.6636 7.0725 25.5826 6.8386C25.5042 6.61259 25.5596 6.34817 25.6683 6.14171C25.8881 5.72478 26.3378 5.53365 26.7635 5.40056Z" fill="#1E1211"/>
<path d="M8.59364 13.7622C8.21547 13.2799 8.21667 12.4186 8.28413 11.8379C8.39506 10.8841 8.93059 9.94494 9.68636 9.35539C9.72716 9.32406 9.76869 9.29375 9.81094 9.26444C9.85324 9.23517 9.89625 9.20694 9.93995 9.17974C9.98361 9.15259 10.0279 9.12654 10.0729 9.10159C10.1179 9.07664 10.1634 9.05282 10.2096 9.03012C10.2558 9.00737 10.3025 8.9858 10.3497 8.9654C10.3969 8.94505 10.4446 8.92585 10.4928 8.90779C10.541 8.88978 10.5895 8.87295 10.6385 8.85728C10.6875 8.84167 10.7369 8.82727 10.7867 8.81409C10.8364 8.80091 10.8864 8.78898 10.9367 8.77829C10.987 8.7676 11.0376 8.75815 11.0883 8.74994C11.1391 8.74173 11.1901 8.73479 11.2412 8.72912C11.2924 8.72349 11.3436 8.7191 11.3949 8.71596C11.4462 8.71282 11.4976 8.71094 11.5491 8.71034C11.6005 8.70977 11.6519 8.71045 11.7033 8.71237C11.7547 8.71434 11.8061 8.71758 11.8573 8.72208C11.9085 8.72658 11.9596 8.73235 12.0106 8.73939C12.959 8.86685 13.7726 9.42573 14.3387 10.1826C15.1383 11.2519 15.5408 12.7276 15.3484 14.0543C15.3217 14.2387 15.2849 14.5554 15.1741 14.702L15.1133 14.6802C15.1611 14.2302 15.1797 13.7907 15.1242 13.3402C14.9771 12.1478 14.41 10.8293 13.4401 10.0787C13.4049 10.0509 13.369 10.024 13.3324 9.99798C13.2959 9.97195 13.2587 9.94689 13.2209 9.92278C13.183 9.89863 13.1446 9.87547 13.1056 9.85328C13.0666 9.8311 13.0271 9.80991 12.987 9.78969C12.9469 9.76953 12.9064 9.75037 12.8654 9.73222C12.8243 9.71403 12.7828 9.69691 12.7409 9.68087C12.699 9.66479 12.6568 9.64978 12.6141 9.63585C12.5715 9.62192 12.5285 9.60907 12.4852 9.5973C12.4419 9.58553 12.3983 9.57486 12.3544 9.5653C12.3106 9.55573 12.2666 9.54726 12.2223 9.5399C12.1781 9.53254 12.1336 9.5263 12.089 9.52119C12.0445 9.51608 11.9998 9.51209 11.955 9.50923C11.9102 9.50637 11.8654 9.50464 11.8205 9.50403C11.7757 9.50342 11.7308 9.50393 11.686 9.50557C11.6411 9.50722 11.5964 9.50998 11.5517 9.51388C11.507 9.51781 11.4624 9.52286 11.418 9.529C10.5966 9.63585 9.88431 10.1342 9.3912 10.7832C9.35143 10.8357 9.31298 10.8892 9.27584 10.9436C9.23865 10.998 9.20282 11.0533 9.16835 11.1093C9.13384 11.1655 9.1007 11.2224 9.06895 11.2801C9.03721 11.3379 9.00686 11.3964 8.97793 11.4556C8.94899 11.5148 8.92151 11.5746 8.89549 11.6351C8.86946 11.6956 8.84489 11.7568 8.82177 11.8185C8.79869 11.8802 8.77712 11.9424 8.75705 12.0051C8.73693 12.0679 8.71836 12.1311 8.70134 12.1948C8.68427 12.2584 8.66877 12.3224 8.65484 12.3868C8.64091 12.4512 8.62853 12.5159 8.6177 12.5809C8.60686 12.6458 8.5976 12.711 8.58991 12.7765C8.58222 12.8419 8.57612 12.9075 8.57162 12.9733C8.56712 13.039 8.56419 13.1047 8.56283 13.1706C8.56147 13.2365 8.56173 13.3024 8.5636 13.3682C8.56543 13.4341 8.56886 13.4998 8.57387 13.5656C8.57889 13.6313 8.58548 13.6968 8.59364 13.7622Z" fill="#060202"/>
<path d="M11.1623 20.371C10.7135 20.4194 10.2688 20.5096 9.81673 20.5264C8.7985 20.5642 7.79884 20.2939 7.04257 19.5865C6.24747 18.8427 5.85474 17.7777 5.829 16.7026C5.80318 15.6234 6.12092 14.4053 6.87874 13.6044C6.71259 13.9977 6.56838 14.3888 6.49565 14.8113C6.2984 15.9569 6.53827 17.2711 7.2216 18.2226C8.25256 19.658 9.65557 19.835 11.274 20.0907C12.0703 20.142 13.0954 20.3029 13.8519 20.2971C14.0051 20.296 14.1897 20.3192 14.3073 20.432C14.374 20.4958 14.3791 20.5156 14.3823 20.6013C14.3182 20.6886 14.2734 20.709 14.1776 20.7512C13.901 20.7192 13.6571 20.5648 13.383 20.5164C12.6654 20.3896 11.8906 20.3703 11.1623 20.371Z" fill="url(#paint1_linear_2_665)"/>
<path d="M33.1436 14.1837C33.882 15.1825 34.3803 16.6391 34.1915 17.8878C34.071 18.685 33.7181 19.3648 33.0578 19.8433C31.4284 21.0236 29.174 20.1569 27.3464 20.1594C26.6358 20.195 25.8777 20.278 25.1941 20.4723C25.1599 20.5314 25.1178 20.6098 25.0633 20.6516C24.9874 20.71 24.9139 20.7064 24.8258 20.6911C24.7531 20.6343 24.7224 20.6099 24.7021 20.5129C24.6831 20.4218 24.7384 20.3516 24.7867 20.2833C25.2531 20.02 26.6029 19.9436 27.1863 19.872C28.8277 19.5952 30.8105 19.978 32.2714 19.0026C32.7132 18.7075 33.2386 18.1376 33.3458 17.6038L33.3497 17.4924C33.6091 17.1992 33.5766 16.4685 33.5549 16.1048C33.5196 15.5101 33.4218 14.8694 33.1962 14.3157L33.1436 14.1837Z" fill="url(#paint2_linear_2_665)"/>
<path d="M19.3831 2.48953C20.1451 2.43354 20.9507 2.51471 21.6937 2.68825C23.2386 3.04912 24.6652 3.82691 25.5108 5.19988C23.6892 4.37362 22.8341 3.94263 20.8251 3.60737C20.3903 3.52225 19.9405 3.51754 19.4988 3.52014C17.6525 3.53097 16.0789 4.08303 14.4752 4.95192C14.5958 4.69868 14.7353 4.47682 14.9214 4.26705C16.0138 3.03589 17.8013 2.57964 19.3831 2.48953Z" fill="#241F20"/>
<path d="M26.2677 18.8359C26.5839 18.6648 27.0007 18.561 27.3437 18.449C29.3024 17.81 31.286 17.5092 33.3458 17.6038C33.2386 18.1376 32.7132 18.7076 32.2714 19.0026C30.8105 19.978 28.8278 19.5952 27.1863 19.872C27.1304 19.5438 26.5305 19.0318 26.2677 18.8359Z" fill="#FD911E"/>
<path d="M19.4102 0.624294C20.3441 0.516921 21.3706 0.633812 22.2861 0.824409C24.0051 1.18228 25.599 1.99595 26.5798 3.49271C26.0515 3.25143 25.547 2.95929 25.0202 2.71569C23.6976 2.10414 22.3494 1.79912 20.9079 1.63513C18.9629 1.49202 17.0854 1.82381 15.2836 2.56206C14.7093 2.79736 14.1595 3.07867 13.5934 3.33099C13.7096 3.16385 13.8225 2.98715 13.9548 2.83225C15.2636 1.29978 17.4875 0.78745 19.4102 0.624294Z" fill="#241F20"/>
<path d="M3.66368 16.0622C4.30654 14.3421 4.94693 13.1599 6.44631 12.0357C5.19454 13.6894 4.21925 15.5238 4.50819 17.6655C4.67986 18.9379 5.36301 20.2063 6.3925 20.9867C7.13885 21.5524 8.10502 21.8248 9.0361 21.6894C9.49404 21.6229 9.90555 21.4543 10.3201 21.2559C9.47181 22.0068 8.49255 22.5985 7.31619 22.5319C6.40333 22.4802 5.60345 22.0397 5.00644 21.3578C4.54277 20.8284 4.26066 20.2076 3.95241 19.5822C4.62272 22.2587 6.17063 24.6371 8.56676 26.0711C9.83851 26.8321 11.1703 27.3046 12.5676 27.7777C12.2049 27.8338 11.8024 27.7231 11.4537 27.628C8.48179 26.818 5.82644 25.3174 4.26388 22.5682C3.46676 21.1657 3.07551 19.4119 3.27294 17.805C3.34595 17.2108 3.50726 16.6384 3.66368 16.0622Z" fill="#060202"/>
<path d="M8.59365 13.7622C8.58549 13.6968 8.5789 13.6313 8.57388 13.5656C8.56886 13.4999 8.56544 13.4341 8.56361 13.3682C8.56174 13.3024 8.56148 13.2365 8.56284 13.1706C8.5642 13.1048 8.56713 13.039 8.57163 12.9733C8.57613 12.9075 8.58223 12.8419 8.58992 12.7765C8.59761 12.711 8.60687 12.6458 8.61771 12.5809C8.62854 12.5159 8.64092 12.4512 8.65485 12.3868C8.66878 12.3224 8.68428 12.2584 8.70135 12.1948C8.71837 12.1311 8.73694 12.0679 8.75706 12.0051C8.77713 11.9424 8.7987 11.8802 8.82177 11.8185C8.84489 11.7568 8.86947 11.6956 8.8955 11.6351C8.92152 11.5746 8.949 11.5148 8.97794 11.4556C9.00687 11.3964 9.03721 11.3379 9.06896 11.2801C9.10071 11.2224 9.13384 11.1655 9.16836 11.1094C9.20283 11.0533 9.23866 10.998 9.27585 10.9436C9.31299 10.8892 9.35144 10.8357 9.39121 10.7832C9.88432 10.1342 10.5966 9.63586 11.418 9.529C11.4624 9.52286 11.507 9.51782 11.5517 9.51388C11.5964 9.50999 11.6411 9.50722 11.686 9.50558C11.7308 9.50394 11.7757 9.50342 11.8205 9.50403C11.8654 9.50464 11.9103 9.50638 11.955 9.50924C11.9998 9.5121 12.0445 9.51608 12.089 9.5212C12.1336 9.52631 12.1781 9.53254 12.2223 9.53991C12.2666 9.54727 12.3107 9.55573 12.3545 9.5653C12.3983 9.57487 12.4419 9.58554 12.4852 9.59731C12.5285 9.60908 12.5715 9.62193 12.6141 9.63586C12.6568 9.64978 12.699 9.66479 12.7409 9.68088C12.7828 9.69691 12.8243 9.71403 12.8654 9.73223C12.9064 9.75038 12.9469 9.76953 12.987 9.7897C13.0271 9.80991 13.0666 9.83111 13.1056 9.85329C13.1446 9.87547 13.183 9.89864 13.2209 9.92279C13.2587 9.94689 13.2959 9.97196 13.3324 9.99799C13.369 10.024 13.4049 10.0509 13.4401 10.0787C14.41 10.8293 14.9771 12.1478 15.1242 13.3402C15.1797 13.7907 15.1611 14.2302 15.1133 14.6802C15.0691 14.6956 15.0388 14.7425 15.0089 14.7786C14.5875 15.2869 14.1308 15.5262 13.5177 15.7435C12.4503 16.1218 11.0869 16.1321 10.0584 15.6264C9.26459 15.2362 8.87214 14.5733 8.59365 13.7622Z" fill="#FCF7E2"/>
<path d="M12.1417 11.027C12.2154 11.0204 12.2892 11.0155 12.3632 11.0125C12.3998 11.011 12.4364 11.0103 12.4731 11.0106C12.5097 11.0109 12.5464 11.0121 12.5829 11.0141C12.6195 11.0163 12.656 11.0193 12.6925 11.0231C12.7289 11.027 12.7652 11.0318 12.8014 11.0375C12.8377 11.0432 12.8737 11.0497 12.9096 11.0572C12.9455 11.0646 12.9812 11.073 13.0166 11.0822C13.0521 11.0914 13.0873 11.1015 13.1223 11.1125C13.1572 11.1235 13.1919 11.1353 13.2263 11.1479C13.2607 11.1606 13.2948 11.1741 13.3285 11.1885C13.3622 11.2028 13.3956 11.2179 13.4285 11.2339C13.4615 11.2499 13.4941 11.2667 13.5262 11.2843C13.5584 11.3019 13.5901 11.3203 13.6214 11.3394C13.6526 11.3586 13.6833 11.3785 13.7136 11.3991C13.7439 11.4198 13.7736 11.4412 13.8028 11.4634C13.832 11.4855 13.8606 11.5084 13.8887 11.5319C13.9168 11.5555 13.9443 11.5797 13.9712 11.6046C14.3869 11.9926 14.6371 12.564 14.6518 13.1314C14.6526 13.1706 14.6524 13.2098 14.6513 13.249C14.6501 13.2882 14.648 13.3274 14.6449 13.3665C14.6418 13.4056 14.6378 13.4446 14.6328 13.4836C14.6279 13.5225 14.622 13.5613 14.6151 13.5999C14.6083 13.6385 14.6005 13.6769 14.5917 13.7152C14.583 13.7535 14.5734 13.7915 14.5628 13.8292C14.5522 13.867 14.5407 13.9046 14.5283 13.9418C14.5159 13.979 14.5026 14.0159 14.4883 14.0524C14.4741 14.089 14.459 14.1252 14.443 14.1611C14.4271 14.1969 14.4103 14.2323 14.3925 14.2673C14.3749 14.3024 14.3563 14.3369 14.3369 14.371C14.3175 14.4051 14.2973 14.4387 14.2763 14.4719C14.2553 14.505 14.2334 14.5376 14.2108 14.5697C14.1882 14.6017 14.1649 14.6332 14.1407 14.6642C14.1166 14.6951 14.0917 14.7254 14.066 14.755C14.0404 14.7848 14.0141 14.8138 13.987 14.8423C13.5862 15.2585 13.04 15.5148 12.4574 15.5146C11.8062 15.5144 11.3361 15.2196 10.8952 14.7688C10.6266 14.4652 10.4624 14.0605 10.3969 13.663C10.2703 12.8942 10.5176 12.2808 10.9586 11.6638C10.9175 11.8276 10.8788 11.9838 10.8874 12.1543C10.9004 12.4171 10.9749 12.6687 11.1821 12.8434C11.3664 12.9986 11.6231 13.0652 11.8608 13.0405C12.1029 13.0153 12.3454 12.8918 12.4972 12.6994C12.6238 12.539 12.6787 12.337 12.6451 12.1349C12.6029 11.8813 12.4344 11.6097 12.2161 11.4707C11.8911 11.2638 11.5186 11.3496 11.1711 11.4325C11.4919 11.252 11.7828 11.1123 12.1417 11.027Z" fill="#060202"/>
<path d="M24.3204 14.3615C24.21 12.9789 24.4201 11.6449 25.3411 10.5541C25.8586 9.94128 26.5701 9.51886 27.3778 9.4526C28.1949 9.38556 28.9758 9.66152 29.5971 10.1928C30.3616 10.8465 30.7569 11.8783 30.8282 12.8621C30.8722 13.4697 30.7775 14.0561 30.5868 14.6322C30.5823 14.6415 30.5779 14.6507 30.5733 14.6598C30.2666 15.2616 29.7373 15.6911 29.0996 15.8936C27.8254 16.2985 26.4003 15.9634 25.2427 15.3643C24.7936 15.1318 24.4768 14.8523 24.3204 14.3615Z" fill="#FCF7E2"/>
<path d="M27.0976 10.9277C27.5118 10.8903 27.9831 11.0118 28.3325 11.233C28.8514 11.5615 29.2054 12.1244 29.3365 12.7188C29.3454 12.7576 29.3533 12.7966 29.3603 12.8358C29.3672 12.8751 29.3733 12.9144 29.3783 12.9539C29.3834 12.9935 29.3874 13.0331 29.3905 13.0728C29.3936 13.1125 29.3956 13.1523 29.3968 13.1921C29.3979 13.2319 29.398 13.2717 29.3972 13.3115C29.3963 13.3514 29.3945 13.3912 29.3917 13.4309C29.3889 13.4706 29.3851 13.5103 29.3804 13.5499C29.3756 13.5894 29.3699 13.6288 29.3632 13.6681C29.3565 13.7074 29.3488 13.7464 29.3402 13.7853C29.3316 13.8242 29.322 13.8628 29.3114 13.9012C29.3009 13.9397 29.2895 13.9778 29.277 14.0157C29.2646 14.0535 29.2513 14.0911 29.237 14.1282C29.2228 14.1654 29.2076 14.2023 29.1915 14.2388C29.1754 14.2752 29.1585 14.3112 29.1406 14.3468C29.1228 14.3824 29.104 14.4175 29.0844 14.4522C29.0649 14.4869 29.0445 14.5211 29.0232 14.5548C28.6188 15.185 28.0355 15.4501 27.3258 15.6007C26.7852 15.5742 26.2923 15.4831 25.851 15.1487C25.8199 15.1249 25.7895 15.1003 25.7596 15.0751C25.7298 15.0498 25.7005 15.0238 25.6719 14.9971C25.6433 14.9704 25.6154 14.943 25.5882 14.9149C25.561 14.8868 25.5345 14.8581 25.5086 14.8287C25.4828 14.7993 25.4578 14.7692 25.4335 14.7385C25.4092 14.7079 25.3856 14.6767 25.3628 14.6449C25.3401 14.6131 25.3181 14.5808 25.2969 14.5478C25.2757 14.515 25.2554 14.4816 25.2358 14.4477C25.2163 14.4138 25.1976 14.3794 25.1798 14.3446C25.162 14.3098 25.145 14.2745 25.1289 14.2389C25.1128 14.2032 25.0976 14.1672 25.0833 14.1308C25.069 14.0943 25.0556 14.0576 25.0431 14.0205C25.0306 13.9835 25.019 13.9461 25.0084 13.9085C24.9977 13.8708 24.988 13.8329 24.9792 13.7948C24.9705 13.7567 24.9626 13.7184 24.9557 13.6799C24.9488 13.6413 24.9429 13.6027 24.9379 13.5639C24.933 13.5242 24.929 13.4844 24.9261 13.4445C24.9231 13.4046 24.9211 13.3647 24.9201 13.3248C24.919 13.2848 24.919 13.2448 24.92 13.2048C24.9209 13.1648 24.9229 13.1249 24.9258 13.085C24.9288 13.0452 24.9327 13.0054 24.9377 12.9657C24.9425 12.926 24.9484 12.8865 24.9553 12.8471C24.9622 12.8077 24.97 12.7685 24.9788 12.7295C24.9876 12.6904 24.9974 12.6517 25.0081 12.6132C25.0188 12.5746 25.0305 12.5364 25.0431 12.4984C25.0557 12.4605 25.0693 12.4229 25.0838 12.3856C25.0982 12.3483 25.1136 12.3114 25.1299 12.275C25.1462 12.2384 25.1634 12.2023 25.1815 12.1666C25.1996 12.131 25.2185 12.0958 25.2383 12.061C25.2581 12.0263 25.2788 11.9921 25.3004 11.9584C25.3219 11.9247 25.3442 11.8915 25.3674 11.8589C25.3905 11.8264 25.4145 11.7943 25.4392 11.7629C25.8609 11.2303 26.437 11.0015 27.0976 10.9277Z" fill="#060202"/>
<path d="M27.1854 11.3027C27.342 11.2964 27.5039 11.315 27.6497 11.3744C27.6755 11.3847 27.7008 11.3962 27.7255 11.409C27.7501 11.4218 27.7741 11.4358 27.7974 11.451C27.8207 11.4662 27.8432 11.4825 27.8648 11.5C27.8864 11.5174 27.9072 11.5359 27.927 11.5555C27.9468 11.575 27.9656 11.5954 27.9833 11.6168C28.0011 11.6382 28.0177 11.6604 28.0333 11.6834C28.0488 11.7065 28.0632 11.7303 28.0763 11.7548C28.0895 11.7792 28.1014 11.8043 28.1121 11.83C28.1224 11.8549 28.1314 11.8803 28.1392 11.9061C28.147 11.9319 28.1534 11.9581 28.1586 11.9845C28.1638 12.011 28.1677 12.0376 28.1702 12.0644C28.1727 12.0912 28.1738 12.1181 28.1737 12.1451C28.1735 12.1721 28.172 12.1989 28.1692 12.2257C28.1663 12.2525 28.1622 12.2791 28.1567 12.3055C28.1512 12.3319 28.1444 12.3579 28.1363 12.3836C28.1282 12.4094 28.1189 12.4346 28.1083 12.4594C27.9857 12.7425 27.7827 12.8591 27.5109 12.9732C27.3749 12.9823 27.2436 12.9824 27.1108 12.946C26.8818 12.883 26.6825 12.7393 26.5758 12.5241C26.564 12.5003 26.5535 12.4758 26.5442 12.4509C26.5349 12.426 26.5268 12.4007 26.52 12.3749C26.5132 12.3492 26.5076 12.3232 26.5034 12.297C26.4991 12.2707 26.4962 12.2443 26.4945 12.2178C26.4929 12.1912 26.4925 12.1647 26.4935 12.1381C26.4944 12.1115 26.4967 12.085 26.5003 12.0587C26.5038 12.0323 26.5087 12.0061 26.5148 11.9802C26.521 11.9543 26.5284 11.9288 26.5371 11.9037C26.6502 11.5776 26.8898 11.4357 27.1854 11.3027Z" fill="#FCF7E2"/>
<path d="M15.6438 16.8237C16.1898 16.1442 17.2169 16.0227 18.0316 15.9359C19.2265 15.8085 21.7718 15.809 22.7104 16.5733C22.8064 16.6515 22.8718 16.7492 22.9367 16.8532C23.9404 17.183 25.4515 17.681 26.1101 18.5551C25.653 18.751 24.0985 19.3623 23.9197 19.7745L23.9407 19.8357C24.0566 19.8778 24.1553 19.8632 24.2662 19.8123C24.599 19.6595 24.9153 19.4525 25.2405 19.2823C25.5691 19.1103 25.9226 18.9712 26.2677 18.8359C26.5305 19.0318 27.1304 19.5438 27.1863 19.872C26.6029 19.9436 25.2531 20.02 24.7867 20.2833C24.7384 20.3516 24.6832 20.4218 24.7022 20.5129C24.7224 20.6099 24.7531 20.6344 24.8258 20.6911C24.914 20.7065 24.9874 20.71 25.0633 20.6517C25.1178 20.6098 25.16 20.5314 25.1941 20.4723C25.8777 20.278 26.6358 20.1951 27.3464 20.1594C28.0724 21.5606 28.0035 22.0637 27.5319 23.5548C27.2134 24.5615 26.7843 25.5282 26.3624 26.4946C26.1693 26.937 25.9489 27.3821 25.7923 27.8374C24.8323 29.8076 23.6681 31.6149 21.4828 32.3592C21.4379 32.3742 21.3929 32.3886 21.3477 32.4025C21.3025 32.4164 21.2571 32.4297 21.2115 32.4425C21.1659 32.4553 21.1202 32.4675 21.0744 32.4792C21.0286 32.4908 20.9826 32.5019 20.9364 32.5124C20.8903 32.5229 20.8441 32.5329 20.7977 32.5423C20.7513 32.5516 20.7049 32.5605 20.6583 32.5687C20.6117 32.5769 20.565 32.5846 20.5182 32.5917C20.4715 32.5988 20.4246 32.6053 20.3777 32.6112C20.3307 32.6171 20.2837 32.6225 20.2367 32.6273C20.1896 32.6321 20.1425 32.6363 20.0953 32.6399C20.0482 32.6435 20.001 32.6466 19.9537 32.649C19.9065 32.6515 19.8592 32.6534 19.8119 32.6547C19.7646 32.6559 19.7173 32.6566 19.67 32.6568C19.6227 32.6569 19.5754 32.6565 19.5281 32.6554C19.4808 32.6544 19.4335 32.6528 19.3863 32.6506C19.339 32.6484 19.2918 32.6456 19.2446 32.6423C19.1974 32.6389 19.1503 32.635 19.1032 32.6305C19.0561 32.6259 19.0091 32.6208 18.9621 32.6151C18.9151 32.6095 18.8682 32.6032 18.8214 32.5964C18.7746 32.5896 18.7279 32.5822 18.6813 32.5742C18.6347 32.5662 18.5881 32.5577 18.5417 32.5485C18.4953 32.5394 18.449 32.5297 18.4028 32.5195C18.3566 32.5092 18.3105 32.4984 18.2646 32.487C18.2187 32.4756 18.1729 32.4636 18.1273 32.4511C18.0817 32.4386 18.0363 32.4255 17.991 32.4118C17.9457 32.3982 17.9005 32.384 17.8556 32.3693C17.8106 32.3545 17.7659 32.3392 17.7213 32.3233C17.6767 32.3075 17.6324 32.2911 17.5882 32.2741C17.544 32.2572 17.5001 32.2397 17.4564 32.2217C17.4126 32.2036 17.3691 32.1851 17.3258 32.166C17.2825 32.1469 17.2395 32.1273 17.1967 32.1071C17.1539 32.0869 17.1114 32.0663 17.0691 32.0451C15.2827 31.1479 14.129 29.6147 13.2264 27.8793C13.0933 27.4351 12.8484 27.0189 12.6688 26.5913C12.0975 25.2304 11.2149 23.4131 11.1014 21.9436C11.0607 21.4172 11.1141 20.8948 11.1623 20.371C11.8906 20.3703 12.6654 20.3896 13.383 20.5164C13.6571 20.5648 13.901 20.7192 14.1776 20.7512C14.2734 20.709 14.3182 20.6886 14.3823 20.6013C14.3791 20.5156 14.374 20.4958 14.3074 20.432C14.1897 20.3192 14.0051 20.296 13.8519 20.2971C13.0954 20.3029 12.0703 20.142 11.274 20.0907C11.3744 19.8856 11.4863 19.687 11.6096 19.4948C11.733 19.3027 11.867 19.1184 12.0118 18.9418C12.5925 19.1828 13.2171 19.3683 13.7786 19.649C13.9521 19.7357 14.2293 20.0496 14.3788 20.0522C14.4668 20.0537 14.5023 20.0234 14.5654 19.9721C14.5767 19.9166 14.5927 19.8948 14.5658 19.8404C14.392 19.4897 12.7063 18.8782 12.2757 18.6976C12.8467 17.7343 14.6113 17.1668 15.6438 16.8237Z" fill="#FCF7E2"/>
<path d="M15.5682 20.1805C15.6599 20.1921 15.7694 20.2042 15.8536 20.2438C15.9373 20.2832 15.9592 20.3227 15.9903 20.4057C15.9777 20.5197 15.92 20.5859 15.8541 20.6746C15.7621 20.68 15.6605 20.6867 15.5754 20.6421C15.5061 20.6059 15.4618 20.5478 15.4511 20.4701C15.4358 20.3599 15.5101 20.2658 15.5682 20.1805Z" fill="#060202"/>
<path d="M22.1532 19.795C22.2241 19.8188 22.3252 19.8622 22.3735 19.924C22.4273 19.9929 22.4423 20.0389 22.437 20.1247C22.4283 20.2652 22.3194 20.3435 22.2207 20.4276C22.1586 20.395 22.1026 20.3571 22.0476 20.3132C21.9874 20.2654 21.9444 20.2085 21.9434 20.1297C21.9414 19.9741 22.0485 19.8929 22.1532 19.795Z" fill="#060202"/>
<path d="M14.6536 18.4315C14.725 18.4423 14.8367 18.4563 14.8956 18.5017C14.9652 18.5553 15.0055 18.6113 15.0056 18.7019C15.0056 18.8145 14.9169 18.9152 14.8529 18.9996C14.7499 18.9877 14.6287 18.9784 14.5469 18.9064C14.48 18.8475 14.4539 18.7809 14.462 18.6928C14.4727 18.5763 14.5723 18.5026 14.6536 18.4315Z" fill="#060202"/>
<path d="M23.4545 20.2271C23.5516 20.2368 23.6619 20.2489 23.7312 20.3283C23.7925 20.3985 23.8207 20.4739 23.8088 20.5677C23.7932 20.6895 23.7104 20.7611 23.6282 20.8427C23.5366 20.8198 23.427 20.7946 23.3537 20.7304C23.3136 20.6951 23.2834 20.6455 23.2777 20.5926C23.2609 20.4372 23.3609 20.3364 23.4545 20.2271Z" fill="#060202"/>
<path d="M22.9527 18.5455C23.0688 18.5431 23.1812 18.5371 23.2875 18.5911C23.3872 18.6416 23.4101 18.6892 23.4376 18.7889C23.4188 18.8985 23.3916 18.9413 23.3259 19.0264C23.2287 19.0522 23.1196 19.0815 23.0197 19.05C22.9358 19.0235 22.8828 18.9739 22.8615 18.8877C22.8321 18.7685 22.9024 18.6484 22.9527 18.5455Z" fill="#060202"/>
<path d="M13.7162 22.0684C13.8578 22.0942 14.001 22.1165 14.1409 22.1507C14.3761 23.466 14.5477 24.7998 15.0084 26.0646C15.1344 26.4103 15.6624 27.2535 15.609 27.5717L15.4588 27.5291C14.4334 26.0981 14.1282 23.7626 13.7162 22.0684Z" fill="#B62404"/>
<path d="M22.6288 28.3486C23.269 28.1544 23.5882 26.8171 24.0816 26.6351C23.5694 27.9617 22.7842 29.1548 21.4451 29.7532C20.3253 30.2537 18.9711 30.2659 17.8328 29.8167C16.8055 29.4113 15.9103 28.536 15.4588 27.5291L15.609 27.5717C15.7872 27.9598 16.1492 28.367 16.5577 28.5067C16.6025 28.522 16.6206 28.522 16.6698 28.5291C16.8296 28.6992 17.0043 28.8582 17.1813 29.01C17.9028 29.6287 19.0493 29.8174 19.968 29.7426C21.0713 29.6527 21.9166 29.189 22.6288 28.3486Z" fill="#060202"/>
<path d="M15.6438 16.8237C16.1897 16.1442 17.2168 16.0227 18.0316 15.9359C19.2265 15.8085 21.7718 15.809 22.7104 16.5733C22.8064 16.6515 22.8718 16.7492 22.9367 16.8532C22.2718 18.4491 20.7182 19.1116 19.2439 19.7951C19.2646 19.9373 19.284 20.0751 19.2863 20.2191C20.3593 21.331 21.896 21.8739 23.4308 21.9039C23.9649 21.9143 25.1542 21.8432 25.558 21.4655C25.5942 21.4317 25.6265 21.3941 25.6602 21.3578C25.7302 21.2825 25.8061 21.1755 25.9083 21.1478L25.9801 21.204C25.9837 21.3695 25.884 21.4861 25.7739 21.6047C25.6703 21.7162 25.5596 21.7829 25.4173 21.8323C25.0129 21.9406 24.6032 22.022 24.1882 22.0763C23.9298 22.1125 23.6395 22.1214 23.3904 22.193C22.9511 22.2057 22.412 22.1289 22.0008 21.976C20.8588 21.6479 19.8901 21.3273 19.1863 20.318C18.7756 20.95 18.0192 21.3775 17.334 21.6504C17.079 21.752 16.8126 21.8252 16.5611 21.9345L16.5344 21.9463C16.1095 22.0662 15.6995 22.1086 15.2672 22.1776C14.9212 22.1108 14.5009 22.1778 14.1409 22.1507C14.001 22.1165 13.8578 22.0942 13.7162 22.0684C13.5326 22.0213 13.3426 21.9463 13.1744 21.8592C12.9629 21.7497 12.6889 21.5613 12.6307 21.3116C12.6092 21.2194 12.6181 21.1777 12.6683 21.1006L12.7451 21.1004C12.8448 21.1752 12.8699 21.3161 12.9062 21.431C13.2838 21.7235 13.7699 21.8656 14.2397 21.9124C16.0443 22.092 17.6532 21.3695 19.023 20.2572L19.0219 19.8227C18.7446 19.6282 17.9887 19.3364 17.6166 19.1199C16.6696 18.5689 15.9266 17.9092 15.6438 16.8237Z" fill="#060202"/>
<path d="M18.9648 16.2082C20.2458 16.2053 21.4621 16.4017 22.6746 16.8183C21.9502 18.0057 20.809 18.725 19.5526 19.2616L19.1565 19.4541C18.7947 19.3216 18.4432 19.1529 18.1038 18.9711C17.2337 18.5051 16.242 17.8106 15.9442 16.8216C16.7756 16.2944 18.0004 16.2596 18.9648 16.2082Z" fill="#241F20"/>
<path d="M18.9409 16.7008C19.5469 16.7025 20.1669 16.7572 20.7625 16.8712C21.0389 16.9241 21.3775 17.0503 21.5401 17.2916C21.5547 17.3825 21.565 17.4164 21.5067 17.4973C21.2956 17.7905 20.2257 18.0853 19.8719 18.164C19.7357 18.1847 19.5991 18.2054 19.4616 18.2151C18.7947 18.2623 17.998 18.098 17.4887 17.638C17.379 17.5389 17.2624 17.3981 17.2722 17.2401C17.2772 17.159 17.3156 17.0909 17.3715 17.034C17.7189 16.6803 18.4766 16.7203 18.9409 16.7008Z" fill="#443E3D"/>
<path d="M19.1863 20.318C19.89 21.3273 20.8588 21.6478 22.0008 21.976C22.412 22.1289 22.9511 22.2057 23.3904 22.1929C23.6395 22.1213 23.9298 22.1125 24.1882 22.0762C24.6032 22.0219 25.0129 21.9406 25.4173 21.8323C25.265 22.2013 25.2037 22.633 25.1179 23.0227C24.8622 24.183 24.6399 25.5868 24.0816 26.6351C23.5882 26.8171 23.269 28.1543 22.6288 28.3485C21.9166 29.1889 21.0713 29.6526 19.968 29.7425C19.0493 29.8174 17.9028 29.6287 17.1813 29.01C17.0043 28.8582 16.8296 28.6991 16.6698 28.5291C16.6206 28.522 16.6024 28.522 16.5577 28.5067C16.1492 28.367 15.7872 27.9597 15.609 27.5717C15.6624 27.2535 15.1344 26.4103 15.0084 26.0646C14.5477 24.7998 14.3761 23.466 14.1409 22.1507C14.5009 22.1778 14.9212 22.1108 15.2672 22.1775C15.6995 22.1086 16.1095 22.0662 16.5344 21.9463L16.5611 21.9344C16.8126 21.8252 17.079 21.752 17.334 21.6504C18.0192 21.3774 18.7756 20.95 19.1863 20.318Z" fill="#450809"/>
<path d="M16.5344 21.9464C16.5243 22.5922 16.449 23.2319 16.3479 23.8693C15.878 23.3426 15.5079 22.8489 15.2672 22.1776C15.6995 22.1086 16.1095 22.0662 16.5344 21.9464Z" fill="#FCF7E2"/>
<path d="M22.0008 21.976C22.412 22.1289 22.9511 22.2057 23.3904 22.193L23.408 22.2274C23.2334 22.8642 22.801 23.5296 22.3233 23.9812C22.2232 23.3116 22.1686 22.6339 22.0008 21.976Z" fill="#FCF7E2"/>
<path d="M18.8788 25.4554C19.2498 25.4097 19.6422 25.4587 20.0045 25.5435C20.7859 25.4284 21.4328 25.4449 22.0887 25.9395C22.5022 26.2512 22.7964 26.7177 22.8616 27.2355C22.9119 27.6354 22.7903 27.9912 22.6287 28.3485C21.9166 29.1889 21.0713 29.6526 19.968 29.7425C19.0493 29.8174 17.9028 29.6286 17.1813 29.01C17.0042 28.8582 16.8296 28.6991 16.6698 28.5291C16.5335 28.2923 16.4247 28.0309 16.3835 27.7594C16.314 27.301 16.4597 26.8503 16.738 26.4853C17.2736 25.783 18.0446 25.5701 18.8788 25.4554Z" fill="#FB5F69"/>
<path d="M18.8788 25.4554C19.2498 25.4097 19.6422 25.4587 20.0045 25.5435C19.0352 26.4539 19.9522 27.8921 19.5916 29.0259C18.8694 28.0988 19.6879 26.3261 19.3433 25.7207C19.2498 25.5566 19.0456 25.5154 18.8788 25.4554Z" fill="#DF344D"/>
<defs>
<linearGradient id="paint0_linear_2_665" x1="28.4593" y1="17.5916" x2="28.6751" y2="19.1419" gradientUnits="userSpaceOnUse">
<stop/>
<stop offset="1" stop-color="#210801"/>
</linearGradient>
<linearGradient id="paint1_linear_2_665" x1="10.4571" y1="17.2839" x2="7.98208" y2="20.2766" gradientUnits="userSpaceOnUse">
<stop/>
<stop offset="1" stop-color="#241413"/>
</linearGradient>
<linearGradient id="paint2_linear_2_665" x1="28.425" y1="16.9245" x2="32.0134" y2="20.7295" gradientUnits="userSpaceOnUse">
<stop stop-color="#040808"/>
<stop offset="1" stop-color="#3D2D2B"/>
</linearGradient>
</defs>
</svg>
