<svg width="96" height="96" viewBox="0 0 96 96" fill="none" xmlns="http://www.w3.org/2000/svg">
<path d="M33.5788 95.8969L23.9421 95.8889C22.079 95.9048 20.2033 96.0003 18.3409 95.9405C13.3169 95.7792 8.59431 93.8371 5.12874 90.1487C4.98384 89.9956 4.8416 89.8401 4.70202 89.6821C4.56253 89.5242 4.42578 89.3638 4.29179 89.201C4.15788 89.0384 4.02676 88.8734 3.89843 88.7062C3.7702 88.5389 3.64487 88.3695 3.52247 88.1979C3.40008 88.0263 3.28068 87.8526 3.1643 87.6769C3.048 87.5012 2.9347 87.3235 2.82441 87.1438C2.71421 86.9642 2.60714 86.7827 2.50321 86.5994C2.39928 86.416 2.29857 86.2309 2.20108 86.044C2.1035 85.8571 2.00924 85.6686 1.91827 85.4786C1.82731 85.2885 1.73961 85.0969 1.65518 84.9037C1.57083 84.7105 1.48988 84.5159 1.41231 84.32C1.33467 84.124 1.26045 83.9268 1.18968 83.7283C1.1189 83.5298 1.05156 83.3301 0.987653 83.1291C0.923748 82.9283 0.863366 82.7264 0.806504 82.5235C0.749642 82.3206 0.696301 82.1167 0.646482 81.9119C0.596664 81.7071 0.55041 81.5015 0.507721 81.2951C-0.115742 78.1271 0.103932 73.7084 0.115528 70.403L0.123645 56.1359L0.0976197 30.6032L0.0692744 24.2311C0.0433774 22.4233 -0.0389527 20.6159 0.0219892 18.8074C0.206619 13.326 2.04634 8.69219 6.09982 4.92797C6.25915 4.78134 6.42106 4.63764 6.58555 4.49686C6.75003 4.356 6.91697 4.21809 7.08635 4.08315C7.25565 3.94821 7.42731 3.81632 7.60133 3.68748C7.77535 3.55864 7.95161 3.43294 8.13009 3.31037C8.30858 3.18779 8.48917 3.0684 8.67187 2.95218C8.85465 2.83597 9.03937 2.72306 9.22602 2.61346C9.41275 2.50377 9.60137 2.39744 9.79189 2.29445C9.98232 2.19155 10.1745 2.092 10.3686 1.9958C10.5626 1.89968 10.7583 1.807 10.9556 1.71776C11.1529 1.62851 11.3517 1.54284 11.552 1.46072C11.7523 1.37852 11.954 1.29988 12.1572 1.22481C12.3603 1.14983 12.5647 1.07845 12.7703 1.01068C12.9759 0.942821 13.1827 0.878701 13.3907 0.818318C13.5985 0.757848 13.8074 0.701073 14.0174 0.647991C14.2274 0.594908 14.4382 0.545604 14.6498 0.50008C14.8615 0.45447 15.0739 0.41264 15.2871 0.374589C18.2961 -0.165127 21.4974 0.0371543 24.5459 0.0370254L38.1618 0.0447556L66.2219 0.0460433L73.2303 0.0693635C74.6424 0.0660136 76.0562 0.00803591 77.4678 0.0589282C78.7308 0.104538 79.9843 0.188929 81.2245 0.448802C84.7818 1.19428 88.1501 3.22675 90.6066 5.88616C94.6181 10.2291 95.9863 15.2603 95.7497 21.0862C95.6801 21.745 95.7192 22.4256 95.7256 23.0877C94.9737 22.0975 94.0539 21.1732 93.2159 20.2514C91.2255 18.0794 89.2079 15.9329 87.1631 13.812C86.1881 12.7855 83.9546 10.044 82.8803 9.48765C82.8709 9.46524 82.8618 9.44256 82.8521 9.42027C82.4378 8.46736 81.9239 7.51394 80.8943 7.12548C78.8662 6.36029 75.1658 7.71841 73.2415 8.60561C70.8734 9.27803 66.583 12.7602 64.8038 14.4946C64.4029 14.3866 63.882 14.0235 63.4946 13.8309C62.5426 13.3578 61.5475 12.8896 60.5438 12.536C57.5404 11.4784 54.5136 10.7383 51.3398 10.4303C50.2087 10.3205 49.0726 10.36 47.9402 10.2421C43.7302 9.88874 37.8061 11.365 33.9057 12.993C33.1557 13.3061 32.1764 13.6776 31.5378 14.1761C31.522 14.1884 31.5074 14.2026 31.4922 14.2157C30.0781 15.0888 28.7011 15.9794 27.3644 16.9696C26.9627 17.2672 26.4847 17.5797 26.1387 17.9395C25.699 17.3461 25.3233 16.6788 24.9205 16.0583C24.3512 15.1942 23.7711 14.3373 23.1804 13.4877C21.865 12.1026 20.7582 10.4123 18.7969 9.92198C17.4895 10.4108 16.6228 11.4384 16.054 12.6882C15.0128 14.9759 15.2951 17.6892 16.161 19.9849C17.0024 22.2154 18.3656 23.6849 20.4411 24.82C19.4713 26.2839 18.7707 27.8875 18.1293 29.5161C17.58 28.9575 17.1217 28.3211 16.6605 27.6903C16.232 28.3347 15.8251 28.9924 15.4398 29.6635C15.0545 30.3346 14.6915 31.0177 14.3511 31.7126C14.0107 32.4076 13.6934 33.113 13.3993 33.8287C13.1052 34.5446 12.8349 35.2692 12.5885 36.0028C12.1365 37.326 11.7923 38.6858 11.3339 40.0055C10.9968 40.9755 10.5709 41.9105 10.1283 42.8363C9.29791 44.5732 8.30957 46.212 7.29688 47.8469C6.27143 49.5025 5.20836 51.1405 4.49033 52.9602C4.31571 53.4052 4.16045 53.8569 4.02457 54.3154C3.88868 54.7737 3.77269 55.237 3.67657 55.7053C3.58054 56.1736 3.5047 56.6452 3.44904 57.1201C3.39346 57.5949 3.35829 58.0713 3.34351 58.5491C4.71052 55.4039 6.33366 53.5632 9.56332 52.262C6.89116 56.8289 5.44569 61.3069 6.12816 66.6431C6.23304 67.4632 6.31678 68.3513 6.53736 69.1477C6.57447 69.2819 6.61904 69.389 6.68578 69.5105L6.7819 69.5452C6.88884 69.4204 6.90262 69.3152 6.93715 69.159C7.32677 69.501 7.74241 69.8333 8.10587 70.2029C8.99191 71.1041 9.80194 72.2034 10.8793 72.8896C10.8767 73.0587 10.9268 73.1358 11.0065 73.2791C11.9964 74.1423 12.8833 75.1429 13.8098 76.0752L19.2701 81.549C22.6306 84.8183 25.965 88.1139 29.2733 91.4359C30.3811 92.532 31.5362 93.5739 32.6241 94.6904C32.9583 95.0336 33.4178 95.4372 33.5788 95.8969Z" fill="url(#paint0_linear_10_56)"/>
<path d="M21.016 7.77734C22.8859 8.6505 24.6755 9.76807 26.4354 10.8439C28.1641 11.9005 29.9183 12.9331 31.4922 14.2158C30.078 15.0888 28.7011 15.9795 27.3644 16.9696C26.9627 17.2673 26.4847 17.5797 26.1387 17.9396C25.699 17.3461 25.3233 16.6789 24.9205 16.0584C24.3511 15.1943 23.7711 14.3374 23.1804 13.4877C22.7905 11.6491 21.1828 9.74385 21.016 7.77734Z" fill="#502918"/>
<path d="M16.6605 27.6904C16.4036 27.0665 15.6047 26.0193 15.2221 25.3731C14.1933 23.6351 13.38 21.5918 12.8981 19.6303C12.0399 16.1367 12.0937 11.7149 14.0355 8.5634C14.5676 7.69991 15.2676 7.11239 16.2764 6.88679C17.7716 6.55245 19.7307 6.97518 21.016 7.77734C21.1828 9.74385 22.7905 11.6491 23.1804 13.4877C21.8649 12.1027 20.7582 10.4124 18.7968 9.92203C17.4895 10.4109 16.6228 11.4385 16.0539 12.6883C15.0128 14.976 15.2951 17.6892 16.161 19.9849C17.0023 22.2154 18.3656 23.685 20.4411 24.8201C19.4713 26.284 18.7707 27.8875 18.1293 29.5162C17.5799 28.9575 17.1216 28.3212 16.6605 27.6904Z" fill="#8F5124"/>
<path d="M73.2415 8.60565C75.1658 7.71845 78.8662 6.36033 80.8943 7.12552C81.9239 7.51398 82.4378 8.4674 82.8521 9.42031C82.8619 9.4426 82.8709 9.46528 82.8803 9.48769C83.9546 10.044 86.1881 12.7855 87.1631 13.812C89.2079 15.933 91.2255 18.0795 93.2159 20.2515C94.0539 21.1732 94.9737 22.0975 95.7256 23.0878C95.7192 22.4257 95.6801 21.745 95.7497 21.0862C95.8269 22.58 95.7824 24.0951 95.7832 25.591L95.7864 33.3395L95.7904 57.1272L95.794 71.6302C95.7953 74.6768 96.0217 77.8672 95.4999 80.8761C95.4638 81.0824 95.4242 81.2879 95.381 81.4928C95.3378 81.6976 95.291 81.9017 95.2407 82.1049C95.1903 82.3081 95.1364 82.5104 95.079 82.7117C95.0216 82.9131 94.9607 83.1133 94.8963 83.3125C94.8318 83.5118 94.7639 83.7098 94.6926 83.9066C94.6213 84.1035 94.5465 84.299 94.4684 84.4932C94.3902 84.6875 94.3087 84.8803 94.2238 85.0717C94.1389 85.2631 94.0507 85.4529 93.9592 85.6412C93.8676 85.8296 93.7729 86.0162 93.6749 86.2011C93.5768 86.3862 93.4755 86.5694 93.371 86.7508C93.2666 86.9323 93.159 87.1119 93.0483 87.2896C92.9376 87.4673 92.8238 87.643 92.707 87.8167C92.5901 87.9904 92.4702 88.1621 92.3474 88.3315C92.2246 88.5011 92.0988 88.6684 91.97 88.8336C91.8414 88.9987 91.7098 89.1615 91.5754 89.3221C91.441 89.4827 91.3039 89.6409 91.164 89.7966C90.9979 89.9837 90.8279 90.1674 90.6542 90.3475C90.4804 90.5276 90.303 90.7041 90.1219 90.8768C89.9409 91.0496 89.7564 91.2186 89.5683 91.3837C89.3803 91.5487 89.1889 91.7099 88.994 91.8671C88.7993 92.0242 88.6014 92.1773 88.4004 92.3263C88.1992 92.4752 87.9951 92.6199 87.788 92.7605C87.5809 92.9009 87.3709 93.037 87.1582 93.1689C86.9455 93.3006 86.7301 93.4279 86.5121 93.5508C86.2941 93.6737 86.0736 93.792 85.8507 93.9056C85.6277 94.0193 85.4025 94.1284 85.1751 94.2327C84.9476 94.3371 84.7181 94.4367 84.4865 94.5316C84.255 94.6265 84.0215 94.7164 83.7862 94.8015C83.5508 94.8868 83.3138 94.967 83.0752 95.0424C82.8366 95.1177 82.5965 95.188 82.3549 95.2534C82.1133 95.3188 81.8705 95.3792 81.6264 95.4345C81.3824 95.4898 81.1373 95.54 80.8911 95.5852C79.709 95.7976 78.5167 95.8682 77.3188 95.9268C74.3077 96.074 71.2329 95.954 68.2145 95.9524L51.2334 95.9497L39.2705 95.9239C38.2241 95.918 37.1776 95.9183 36.1312 95.9248C35.2872 95.9334 34.4203 95.9786 33.5788 95.897C33.4178 95.4373 32.9583 95.0336 32.6241 94.6905C31.5362 93.574 30.3811 92.532 29.2733 91.436C25.965 88.1139 22.6306 84.8183 19.2701 81.5491L13.8098 76.0753C12.8833 75.143 11.9964 74.1424 11.0065 73.2792C10.9269 73.1359 10.8767 73.0587 10.8793 72.8897C9.80195 72.2035 8.99193 71.1042 8.10589 70.2029C7.74242 69.8333 7.32678 69.501 6.93717 69.1591C6.90264 69.3152 6.88885 69.4205 6.78191 69.5452L6.6858 69.5105C6.61906 69.3891 6.57448 69.282 6.53737 69.1477C6.3168 68.3514 6.23305 67.4633 6.12817 66.6432C5.4457 61.307 6.89117 56.829 9.56334 52.2621C6.33367 53.5632 4.71053 55.404 3.34353 58.5491C3.3583 58.0713 3.39348 57.595 3.44905 57.1201C3.50471 56.6452 3.58055 56.1736 3.67658 55.7053C3.7727 55.237 3.8887 54.7737 4.02458 54.3154C4.16047 53.857 4.31572 53.4053 4.49034 52.9603C5.20838 51.1405 6.27145 49.5025 7.29689 47.8469C8.30958 46.2121 9.29792 44.5732 10.1283 42.8363C10.5709 41.9106 10.9968 40.9756 11.3339 40.0055C11.7923 38.6858 12.1366 37.326 12.5885 36.0028C12.835 35.2693 13.1052 34.5446 13.3993 33.8288C13.6934 33.113 14.0107 32.4076 14.3511 31.7127C14.6916 31.0177 15.0545 30.3347 15.4398 29.6636C15.8251 28.9925 16.232 28.3348 16.6606 27.6904C17.1217 28.3212 17.58 28.9575 18.1293 29.5162C18.7707 27.8875 19.4714 26.2839 20.4411 24.82C18.3656 23.685 17.0024 22.2154 16.161 19.9849C15.2951 17.6892 15.0128 14.9759 16.054 12.6882C16.6228 11.4385 17.4895 10.4108 18.7969 9.92202C20.7582 10.4124 21.865 12.1027 23.1804 13.4877C23.7711 14.3374 24.3512 15.1942 24.9206 16.0583C25.3233 16.6788 25.699 17.3461 26.1388 17.9395C26.4847 17.5797 26.9627 17.2673 27.3644 16.9696C28.7011 15.9795 30.0781 15.0888 31.4922 14.2158C31.5074 14.2026 31.522 14.1885 31.5378 14.1761C32.1764 13.6776 33.1557 13.3062 33.9057 12.9931C37.8061 11.365 43.7302 9.88878 47.9402 10.2422C49.0726 10.3601 50.2087 10.3205 51.3398 10.4303C54.5136 10.7384 57.5404 11.4784 60.5439 12.5361C61.5475 12.8896 62.5426 13.3578 63.4946 13.8309C63.882 14.0235 64.4029 14.3866 64.8039 14.4946C66.583 12.7603 70.8734 9.27807 73.2415 8.60565Z" fill="#FBFBFB"/>
<path d="M66.0473 64.3892C67.0754 64.3767 68.0845 64.4371 69.0988 64.611C68.8662 65.4846 68.5665 66.1875 68.1451 66.9844C67.4286 66.7536 66.6759 66.6606 65.9613 66.4072C65.932 66.371 65.9021 66.3353 65.8718 66.3C65.7919 66.2081 65.7265 66.1263 65.6051 66.0899C64.4785 65.7518 61.2679 65.6478 59.9352 65.5558C59.0771 65.5056 56.2255 65.4891 55.647 65.0971L55.6333 64.9879C55.7316 64.8866 55.8155 64.8168 55.958 64.788C56.4911 64.6803 57.149 64.716 57.6958 64.7101C59.679 64.6888 61.6757 64.7882 63.6569 64.8731C64.3628 64.9032 65.2873 65.0483 65.9666 64.8991C66.0716 64.7542 66.045 64.5609 66.0473 64.3892Z" fill="#431A0F"/>
<path d="M11.7561 61.8133C11.0298 64.476 10.557 66.8419 10.6388 69.6319C10.6706 70.7164 10.9598 71.8057 10.8793 72.8897C9.80195 72.2035 8.99192 71.1042 8.10588 70.2029C7.74242 69.8333 7.32678 69.501 6.93716 69.1591C7.05982 66.9829 9.24651 64.0294 10.8141 62.6224C11.124 62.348 11.438 62.0783 11.7561 61.8133Z" fill="#FC6F01"/>
<path d="M72.2996 64.6765C74.4765 64.6424 76.6736 64.8543 78.85 64.9251C77.5045 66.5025 76.2235 68.0794 74.7144 69.5112C73.9943 69.4191 73.1433 68.8373 72.4672 68.5409C71.1095 67.9454 69.6986 67.5321 68.3244 66.9878C69.0377 66.6754 69.7533 66.3383 70.4153 65.9266C71.0552 65.5283 71.653 65.0641 72.2996 64.6765Z" fill="#431A0F"/>
<path d="M39.1712 66.734C39.5292 66.7077 39.9693 66.6165 40.2797 66.8336C40.3276 66.9847 40.3383 66.9784 40.2697 67.1194C40.098 67.2472 39.8892 67.2858 39.6829 67.3255C38.8815 67.4799 38.0469 67.5063 37.238 67.6215C35.2727 67.9013 33.2839 68.2592 31.3286 68.6099C31.4184 68.8962 31.5481 69.1659 31.6709 69.4392C31.0038 69.7211 30.3064 69.9345 29.637 70.2163C28.008 70.9023 26.543 71.7634 25.0739 72.7425C24.6457 72.4723 24.2419 72.1514 23.8335 71.8517C22.9431 71.2279 22.1869 70.4707 21.3385 69.7988C26.9798 67.6591 33.2224 67.3661 39.1712 66.734Z" fill="#502918"/>
<path d="M55.6265 66.6435C56.4364 66.7695 57.2676 66.8189 58.082 66.9354C60.5144 67.2748 62.9333 67.6929 65.3386 68.1896L65.5153 67.4913C68.5021 68.2153 71.4369 69.1177 74.402 69.922C73.8855 70.3536 73.3976 70.8208 72.8888 71.262C72.1998 71.8328 71.5051 72.3965 70.8045 72.9531C68.8209 71.8142 66.5854 70.7666 64.3961 70.0957C64.6098 69.8196 64.7635 69.512 64.9252 69.2041C62.8699 68.6695 60.7994 68.2019 58.7137 67.8014C57.8425 67.6297 56.9528 67.5186 56.0875 67.3234C55.8897 67.2788 55.6627 67.2471 55.5134 67.1021C55.484 66.8966 55.5414 66.8289 55.6265 66.6435Z" fill="#431A0F"/>
<path d="M26.4109 64.2262C27.1076 64.1919 29.6906 64.1288 30.2036 64.4004C30.2318 64.5167 30.2461 64.6223 30.2499 64.7413L30.2536 64.8729C30.6402 65.1746 38.5116 64.1828 39.8379 64.7749C39.987 64.8414 40.0403 64.8905 40.0901 65.0427C39.93 65.2255 39.7655 65.2647 39.5283 65.2974C38.8346 65.3931 38.0723 65.3081 37.3695 65.3202C36.0271 65.3435 31.5868 65.557 30.5067 66.0319L30.4612 66.2468C29.9558 66.5287 29.2775 66.608 28.7126 66.7248C26.0014 67.2967 23.4381 68.1913 20.9327 69.367C19.5001 67.9632 18.1903 66.5694 16.9676 64.9763C18.8443 64.973 20.7224 64.9674 22.5894 64.7548C23.8739 64.6085 25.1145 64.2954 26.4109 64.2262Z" fill="#502918"/>
<path d="M24.9581 64.4893C25.6682 64.447 26.3771 64.4443 27.0882 64.4403C27.2915 65.1234 27.5475 65.7435 27.8615 66.3843C27.5453 66.3204 27.2334 66.2294 26.9216 66.1471C25.7679 65.7813 24.8038 65.3158 23.7638 64.7061C24.1697 64.584 24.5357 64.5128 24.9581 64.4893Z" fill="#FBFBFB"/>
<path d="M78.6859 31.8573C82.2195 39.7142 86.2316 49.107 82.9589 57.7236C82.2131 59.6869 80.6645 62.6983 79.2646 64.2438C77.3962 63.9521 75.5246 63.6833 73.6497 63.4373C76.6299 60.9059 77.8181 58.9913 79.2106 55.3781C81.3254 49.5283 80.8479 42.6229 79.7817 36.6139C79.6269 35.7418 79.4212 34.8613 79.1917 34.006C79.0107 33.3318 78.7377 32.6138 78.6891 31.917C78.6877 31.8971 78.687 31.8773 78.6859 31.8573Z" fill="#431A0F"/>
<path d="M17.1631 32.3618C17.1642 33.1278 16.8687 33.9352 16.692 34.6784C16.525 35.3802 16.3884 36.1076 16.29 36.8221C15.607 41.7808 15.0771 50.6472 16.8148 55.3857C17.8025 59.2138 19.8765 61.5721 22.8278 64.0501C20.8239 64.1359 18.8474 64.466 16.8814 64.8445C15.1878 63.1938 13.2906 59.065 12.5879 56.758C10.6205 50.2994 12.2935 44.1243 14.6934 38.0476C15.4472 36.139 16.1989 34.1755 17.1631 32.3618Z" fill="#502918"/>
<path d="M54.3224 84.7685C54.5186 84.7178 54.714 84.6635 54.9083 84.6057C55.1027 84.5479 55.296 84.4866 55.4881 84.4218C55.6803 84.3571 55.8712 84.2889 56.0608 84.2172C56.2505 84.1456 56.4388 84.0706 56.6258 83.9922C56.8128 83.9137 56.9983 83.832 57.1823 83.7468C57.3663 83.6617 57.5488 83.5733 57.7296 83.4816C57.9105 83.3899 58.0896 83.295 58.267 83.1968C58.4444 83.0986 58.62 82.9973 58.7938 82.8929C58.9676 82.7884 59.1394 82.6809 59.3093 82.5701C59.4792 82.4595 59.647 82.3458 59.8128 82.2291C59.9787 82.1124 60.1423 81.9927 60.3038 81.87C60.4653 81.7474 60.6245 81.622 60.7814 81.4937C60.9384 81.3652 61.093 81.2341 61.2453 81.1002C61.3975 80.9663 61.5472 80.8297 61.6945 80.6903C61.8418 80.551 61.9866 80.4091 62.1289 80.2645C62.271 80.12 62.4105 79.9729 62.5475 79.8234C61.7342 81.3025 60.9788 82.8468 60.0036 84.2286C59.3253 85.0324 58.7159 85.8621 57.9597 86.6017C55.8584 88.6571 53.1935 89.8625 50.4423 90.7764C49.6094 91.053 48.7012 91.3918 47.812 91.3616C47.0811 91.3369 46.3432 91.1003 45.6475 90.8911C43.1342 90.1353 40.773 89.1016 38.7326 87.4094C37.567 86.4427 36.6505 85.3166 35.6202 84.2214C34.8099 82.8685 34.0077 81.5333 33.3871 80.0805C35.7249 82.3292 38.3426 83.9727 41.4943 84.8042C41.2099 83.6646 41.0461 82.5562 40.9953 81.3807C42.0375 83.4627 42.9007 84.6921 45.2252 85.4613C47.2406 86.1283 49.5569 86.0758 51.4707 85.1122C53.1387 84.2724 54.1327 83.007 54.788 81.2889C54.8795 82.4906 54.7146 83.6291 54.3224 84.7685Z" fill="#502918"/>
<path d="M38.847 55.3558C38.8496 55.3349 38.8574 55.3142 38.8549 55.2933C38.8286 55.0798 38.8149 55.3749 38.8126 55.0854C38.8068 54.3464 39.5273 52.2032 39.7609 51.3386C40.5539 48.4039 41.7236 42.1679 44.0356 40.1368C44.9646 39.3206 46.7384 38.4109 48.0027 38.4835C49.6556 38.8001 51.058 39.5029 52.0175 40.9301C52.8175 42.1199 53.0816 43.4979 53.5129 44.8378C53.9236 46.1143 54.6679 47.2651 55.0316 48.554C55.311 49.5444 55.167 50.5543 55.3474 51.5472C55.5768 52.8095 56.2708 54.3293 56.7265 55.5465L56.8098 55.5548C56.8514 55.3934 56.88 55.2313 56.9087 55.0673C56.9391 55.2513 57.0113 55.5197 56.9876 55.7006C57.2683 56.2539 57.2735 57.0342 57.291 57.6445C57.271 58.3753 56.9957 59.0913 56.6543 59.729C56.1632 60.6463 55.3617 61.6287 54.449 62.1541C54.0147 62.404 53.5469 62.5776 53.1579 62.901C52.8065 63.1932 52.5054 63.569 52.1993 63.9074C51.1449 65.0731 50.3142 65.6551 48.8013 66.1169C48.6385 67.1489 48.4564 68.2212 48.5745 69.2674C48.651 69.9451 48.8313 70.6125 49.3972 71.0436C50.1143 71.5898 51.1588 71.8449 51.9888 72.2067C54.3318 73.228 56.5916 74.6978 59.2722 74.2578C60.956 73.9815 62.3295 72.837 63.2977 71.4831C61.8374 70.9958 60.3521 70.5549 58.8756 70.1189C57.9907 69.8578 57.0888 69.6256 56.2244 69.3012C55.9637 69.2033 55.5815 69.0985 55.4625 68.8346L55.5665 68.7471C56.5174 68.5 57.7788 69.0656 58.7032 69.3093C62.7358 70.372 66.4892 71.575 70.3212 73.2349C69.2525 73.8887 68.2181 74.599 67.1077 75.1834C63.7824 76.9336 59.1619 78.4512 55.6291 76.5797C53.059 75.2179 50.8694 74.0795 47.8447 74.1205C45.4036 74.1536 43.2258 74.988 41.1017 76.1144C40.1266 76.6316 39.1749 77.1901 38.0712 77.3763C33.8004 78.0965 28.9211 75.5162 25.5185 73.0966C26.6313 72.6724 27.6904 72.0955 28.7993 71.6551C30.2912 71.066 31.8071 70.5469 33.3469 70.0978C34.8867 69.6487 36.4439 69.2715 38.0185 68.9662C38.5384 68.8631 39.7516 68.569 40.2162 68.6642C40.3921 68.7001 40.4102 68.7323 40.5045 68.8702C40.4094 69.0489 40.3104 69.0964 40.1214 69.1652C39.5112 69.3871 38.84 69.4778 38.2118 69.6546C36.3573 70.1763 34.5008 70.6825 32.6843 71.3282C33.1078 71.8605 33.5153 72.3587 34.0519 72.7841C35.3714 73.8302 36.9434 74.3896 38.6313 74.1938C39.3513 74.1103 40.0488 73.9143 40.7308 73.6737C41.8576 73.2759 42.894 72.6804 43.9861 72.2014C44.7202 71.8794 45.5282 71.6572 46.2311 71.2748C46.4987 71.1292 46.7716 70.9454 46.9541 70.6964C47.7861 69.5603 47.3741 67.4558 47.2099 66.1595C44.701 65.363 44.6429 64.503 42.8431 62.894C42.4426 62.5358 41.895 62.3341 41.4554 62.0228C39.767 60.8273 38.7697 59.1101 38.4195 57.0929C38.4194 57.0727 38.4189 57.0525 38.4189 57.0323C38.4198 56.6348 38.4807 55.5583 38.7589 55.2773L38.847 55.3558Z" fill="#502918"/>
<path d="M40.7991 56.7015L40.8761 56.6639C42.4667 55.9044 44.2672 56.5825 45.8981 56.8462C46.9052 57.0092 48.0597 57.1005 49.0737 56.9862C50.7827 56.7936 52.8992 55.8852 54.5932 56.4522C55.0295 56.5982 55.3724 56.827 55.7194 57.1197C55.8989 57.4221 56.0137 57.7349 56.1338 58.0634L56.0736 58.1841L56.1067 58.332C55.8525 59.1535 55.2118 59.807 54.6508 60.4344C54.7223 59.8888 54.6825 59.6652 54.4149 59.191C54.0102 58.9781 53.6747 58.8047 53.1999 58.8516C51.2168 59.0473 50.5942 62.7691 49.6438 63.8527C49.3132 64.2296 48.8303 64.3513 48.3476 64.3898C47.8183 64.4321 47.2142 64.4214 46.7429 64.1466C45.5352 63.4422 45.2011 60.5807 43.6529 59.3235C43.3049 59.041 42.854 58.8177 42.3941 58.8779C42.0915 58.9174 41.8339 59.0759 41.6564 59.3233C41.3726 59.7183 41.4252 60.0411 41.4867 60.4924C40.7895 59.7356 40.2559 59.0888 39.794 58.1614L39.8909 57.9501C40.0485 57.4487 40.4247 57.053 40.7991 56.7015Z" fill="#8F5124"/>
<path d="M40.7991 56.7015L40.8761 56.6639C42.4667 55.9044 44.2672 56.5825 45.8981 56.8462C46.9053 57.0092 48.0597 57.1005 49.0737 56.9862C50.7827 56.7936 52.8992 55.8852 54.5932 56.4522C55.0295 56.5982 55.3724 56.827 55.7194 57.1197C55.8989 57.4221 56.0137 57.7349 56.1338 58.0634L56.0736 58.1841C55.8964 58.0816 55.7363 57.9386 55.5638 57.826C55.2245 57.6048 54.845 57.4048 54.4425 57.3372C52.9415 57.0847 51.2584 57.8245 49.7944 58.1153C49.1806 58.2373 48.5642 58.2844 47.939 58.2788C47.1105 58.271 46.2563 58.1682 45.4535 57.9613C44.3865 57.6861 43.326 57.2693 42.2084 57.2857C41.366 57.298 40.7763 57.7847 39.999 57.9314C39.963 57.9381 39.927 57.9439 39.8909 57.9501C40.0485 57.4487 40.4247 57.053 40.7991 56.7015Z" fill="#431A0F"/>
<path d="M38.847 55.3558C38.8496 55.3349 38.8574 55.3142 38.8548 55.2933C38.8286 55.0798 38.8149 55.3749 38.8126 55.0854C38.8068 54.3464 39.5273 52.2032 39.7608 51.3386C40.5539 48.4039 41.7236 42.1679 44.0355 40.1368C44.9646 39.3206 46.7384 38.4109 48.0027 38.4835C49.6556 38.8001 51.058 39.5029 52.0175 40.9301C52.8175 42.1199 53.0816 43.4979 53.5128 44.8378C53.9236 46.1143 54.6679 47.2651 55.0316 48.554C55.311 49.5444 55.167 50.5543 55.3474 51.5472C55.5767 52.8095 56.2708 54.3293 56.7265 55.5465L56.8098 55.5548C56.8514 55.3934 56.88 55.2313 56.9087 55.0673C56.9391 55.2513 57.0113 55.5197 56.9876 55.7006C56.9185 56.2471 56.7417 57.7361 56.2992 58.0849C56.2832 58.0974 56.2641 58.1055 56.2466 58.1158L56.1337 58.0634C56.0137 57.735 55.8989 57.4221 55.7194 57.1197C55.3724 56.827 55.0294 56.5982 54.5932 56.4522C52.8992 55.8852 50.7827 56.7936 49.0736 56.9863C48.0596 57.1005 46.9052 57.0092 45.8981 56.8462C44.2672 56.5825 42.4666 55.9044 40.8761 56.6639L40.7991 56.7015C40.4246 57.053 40.0484 57.4487 39.8909 57.9501L39.794 58.1614C39.3269 57.29 38.8827 56.3604 38.847 55.3558Z" fill="#FEC570"/>
<path d="M38.847 55.3558C38.8496 55.3349 38.8574 55.3142 38.8548 55.2933C38.8286 55.0798 38.8149 55.3749 38.8126 55.0854C38.8068 54.3464 39.5273 52.2032 39.7608 51.3386C40.5539 48.4039 41.7236 42.1679 44.0355 40.1368C44.9646 39.3206 46.7384 38.4109 48.0027 38.4835C49.6556 38.8001 51.058 39.5029 52.0175 40.9301C52.8175 42.1199 53.0816 43.4979 53.5128 44.8378C53.9236 46.1143 54.6679 47.2651 55.0316 48.554C55.311 49.5444 55.167 50.5543 55.3474 51.5472C55.5767 52.8095 56.2708 54.3293 56.7265 55.5465L56.8098 55.5548C56.8514 55.3934 56.88 55.2313 56.9087 55.0673C56.9391 55.2513 57.0113 55.5197 56.9876 55.7006C56.9185 56.2471 56.7417 57.7361 56.2992 58.0849C56.2832 58.0974 56.2641 58.1055 56.2466 58.1158L56.1337 58.0634C56.0137 57.735 55.8989 57.4221 55.7194 57.1197C56.1735 56.3399 54.0998 54.2127 53.609 53.5709C53.4112 53.3122 53.2544 53.0346 53.1154 52.7407C52.3861 51.1991 52.5147 49.4496 52.3942 47.7911C52.3208 46.779 52.1815 45.7603 51.9434 44.7737C51.5979 43.3419 50.8721 41.6279 49.5444 40.8456C48.7004 40.3484 47.5525 40.2346 46.6192 40.5143C45.8991 40.7303 45.261 41.2293 44.9088 41.8988C43.9933 43.6396 42.7286 50.3634 42.7927 52.3396C42.8215 53.2264 43.0924 54.0707 43.3514 54.9115C42.6569 54.9395 41.9919 55.107 41.3884 55.4578C41.1139 55.6172 40.7346 55.8896 40.6781 56.2293C40.6428 56.4411 40.6906 56.5241 40.7991 56.7015C40.4246 57.053 40.0484 57.4487 39.8909 57.9501L39.794 58.1614C39.3269 57.29 38.8827 56.3604 38.847 55.3558Z" fill="#FEB34E"/>
<path d="M18.7969 9.922C20.7582 10.4124 21.8649 12.1026 23.1804 13.4877C23.7711 14.3373 24.3512 15.1942 24.9205 16.0583C25.3233 16.6788 25.699 17.3461 26.1387 17.9395C26.4847 17.5797 26.9627 17.2672 27.3644 16.9696C28.7011 15.9795 30.0781 15.0888 31.4922 14.2158C31.5074 14.2026 31.522 14.1884 31.5378 14.1761C32.1764 13.6776 33.1557 13.3061 33.9057 12.9931C37.8061 11.365 43.7302 9.88876 47.9402 10.2422C47.9418 11.0894 47.9186 11.9442 47.9463 12.7905C47.9566 13.7697 47.9937 14.7657 47.95 15.7434L47.9448 16.7864C47.9727 17.9552 48.0207 19.1768 47.9409 20.3427L47.9446 21.9748C47.9785 23.3644 48.0184 24.7965 47.9468 26.1837C47.9478 26.6438 47.9869 27.1447 47.8909 27.5942L47.9552 27.6C47.9738 28.424 47.8129 29.2059 47.8002 30.0186C47.7924 30.5113 47.8897 30.9998 47.9508 31.4858C47.9526 31.5006 47.9496 31.5155 47.949 31.5305L47.8058 31.6344C47.8156 32.472 47.6821 38.1346 47.9448 38.4367C47.9611 38.4554 47.9835 38.4679 48.0027 38.4835C46.7384 38.4108 44.9646 39.3206 44.0355 40.1368C41.7236 42.1679 40.5539 48.4039 39.7609 51.3386C39.5273 52.2032 38.8068 54.3464 38.8126 55.0853C38.8149 55.3749 38.8286 55.0798 38.8548 55.2933C38.8574 55.3142 38.8496 55.3349 38.847 55.3558L38.7589 55.2773C38.4807 55.5583 38.4197 56.6348 38.4188 57.0323C38.4188 57.0525 38.4194 57.0727 38.4195 57.0929C36.0983 57.046 33.8999 57.4715 32.1735 59.1304C31.4466 59.829 30.9242 60.689 30.5488 61.6204L30.4683 62.2648C30.6856 62.2639 30.9029 62.266 31.1201 62.2711C32.2812 62.2968 39.1723 62.6646 39.6586 63.2474C39.733 63.3367 39.7102 63.3142 39.7011 63.4385C39.6373 63.4882 39.5782 63.5246 39.4985 63.5438C38.801 63.712 34.1868 63.1704 33.1285 63.1214C32.3377 63.0848 31.5043 63.0267 30.7145 63.0768C30.3357 63.1009 29.988 63.2969 29.6083 63.347C28.746 63.4609 27.8244 63.4152 26.9535 63.4242C26.8289 62.4096 26.9178 61.4332 27.0112 60.421C26.8167 60.4811 26.6189 60.546 26.42 60.5894C25.4095 60.8098 24.4337 60.4643 23.5901 59.9255C20.6599 58.054 19.3181 54.6343 18.6158 51.3779C17.7263 52.547 17.4748 54.0969 16.8148 55.3857C15.0771 50.6472 15.607 41.7808 16.29 36.8221C16.3884 36.1075 16.525 35.3802 16.692 34.6784C16.8687 33.9352 17.1642 33.1278 17.1631 32.3617C17.2765 31.6022 17.9656 30.4679 18.1293 29.5162C18.7707 27.8875 19.4713 26.2839 20.4411 24.82C18.3656 23.6849 17.0024 22.2154 16.161 19.9849C15.2951 17.6892 15.0128 14.9759 16.054 12.6882C16.6228 11.4385 17.4895 10.4108 18.7969 9.922Z" fill="#FA9A38"/>
<path d="M47.8909 27.5942L47.9552 27.6C47.9739 28.424 47.8129 29.2059 47.8002 30.0186C47.7924 30.5113 47.8897 30.9998 47.9508 31.4858C47.9526 31.5006 47.9496 31.5155 47.949 31.5305L47.8058 31.6344C45.4201 31.7987 43.4309 32.6474 41.8395 34.4643C41.2992 35.0812 40.8104 35.7825 40.4647 36.5281C40.289 36.9074 40.0425 38.0487 39.7079 38.2369L39.6892 38.1823C39.693 35.5927 40.4525 33.0174 42.1165 31.0061C43.5801 29.237 45.5569 27.8086 47.8909 27.5942Z" fill="#502918"/>
<path d="M36.9221 29.3502C37.364 28.6019 37.7781 27.8714 38.3334 27.1973C40.639 24.3988 44.3167 22.3154 47.9446 21.9748C47.9785 23.3644 48.0184 24.7964 47.9468 26.1837C43.5278 26.2843 40.7281 27.1107 36.9221 29.3502Z" fill="#502918"/>
<path d="M47.9463 12.7905C47.9566 13.7697 47.9937 14.7657 47.95 15.7434C41.9538 15.8553 35.4938 16.2055 30.0367 18.9687C29.1511 19.4172 28.3246 19.9859 27.4953 20.5292C27.5348 20.4558 27.5764 20.3977 27.6338 20.3371C28.7118 19.1995 29.9826 18.2834 31.2985 17.442C36.4093 14.1736 41.956 12.9964 47.9463 12.7905Z" fill="#502918"/>
<path d="M25.5797 37.0462C26.6408 37.3087 27.7196 37.2493 28.8025 37.2145C28.5415 38.8589 28.6965 40.4225 29.712 41.8C30.612 43.0206 32.051 43.7884 33.5403 44.0004C34.889 44.1925 36.9758 43.3543 37.9326 44.5609C38.4018 45.1527 38.7478 45.9532 39.0276 46.6513C38.2276 46.5709 37.473 46.314 36.6608 46.2899C35.2045 46.2469 33.7459 46.4663 32.2893 46.3469C32.1694 46.3374 32.0498 46.3249 31.9305 46.3095C31.8112 46.2941 31.6924 46.2757 31.574 46.2544C31.4556 46.2332 31.3378 46.209 31.2206 46.1818C31.1034 46.1548 30.9869 46.1248 30.8712 46.0919C30.7555 46.0591 30.6406 46.0234 30.5267 45.9848C30.4127 45.9464 30.2997 45.9051 30.1878 45.861C30.0759 45.8169 29.9651 45.77 29.8555 45.7205C29.7459 45.6709 29.6376 45.6187 29.5306 45.5638C29.4236 45.5089 29.318 45.4514 29.2138 45.3913C29.1096 45.3312 29.0069 45.2685 28.9058 45.2033C28.8047 45.1381 28.7053 45.0705 28.6076 45.0004C28.5098 44.9303 28.4138 44.8578 28.3196 44.7829C28.2255 44.7081 28.1332 44.631 28.0429 44.5516C27.9525 44.4723 27.8641 44.3907 27.7777 44.3068C27.6914 44.2231 27.6072 44.1373 27.5251 44.0494C27.4429 43.9614 27.3631 43.8716 27.2854 43.7797C25.6838 41.8749 25.3789 39.448 25.5797 37.0462Z" fill="#FBFBFB"/>
<path d="M31.5659 32.517C30.4288 31.2382 29.5979 29.5782 29.5622 27.8449C29.5217 25.8819 30.4632 24.0964 31.8112 22.7181C35.8164 18.6235 42.3397 16.8303 47.9449 16.7864C47.9727 17.9552 48.0207 19.1768 47.9409 20.3426C45.6801 20.2356 43.4858 20.1685 41.2477 20.6077C37.897 21.2653 34.431 23.0036 32.4989 25.9114C31.0899 28.032 31.0698 30.0977 31.5659 32.517Z" fill="#502918"/>
<path d="M26.1401 26.1748C26.1449 26.2168 26.1504 26.2587 26.1547 26.3008C26.2097 26.8511 26.0354 27.4603 26.0198 28.0184C25.9799 29.4531 26.7301 30.9623 27.8116 31.8843C29.3692 33.2123 31.4824 33.3943 33.3304 34.0977C34.4546 34.5255 35.495 35.1017 36.5871 35.5958C35.1331 34.4433 33.5636 33.111 33.3395 31.1487C33.1839 29.7856 33.7912 28.8072 34.5027 27.7276C34.8167 30.0376 35.3198 32.0193 37.1094 33.6517C37.4085 33.055 37.6919 32.4229 38.0634 31.8679C38.2135 34.0101 38.7547 36.2348 39.6892 38.1823L39.7079 38.2369C39.9308 39.4931 40.5895 44.2988 39.98 45.3186C39.7897 44.0787 39.5919 42.8591 39.1765 41.6695C37.8984 38.0098 35.3121 35.8234 31.3528 35.8853C29.9482 35.9072 28.3865 36.2351 27.074 35.5708C26.1583 35.1075 25.6079 34.2474 25.2975 33.2995C24.5049 30.8783 25.0316 28.3946 26.1401 26.1748Z" fill="#FBFBFB"/>
<path d="M18.7969 9.922C20.7582 10.4124 21.8649 12.1026 23.1804 13.4877C23.7711 14.3373 24.3512 15.1942 24.9205 16.0583C25.3233 16.6788 25.699 17.3461 26.1387 17.9395C25.9785 18.144 25.7777 18.2916 25.5749 18.4508C23.275 17.3439 20.8242 16.7262 18.3473 16.1589C19.2061 16.7591 23.7937 19.524 24.0561 19.989C23.9786 20.1426 23.9026 20.1735 23.7445 20.2266C22.7467 20.5614 18.6073 20.4017 17.2765 20.3885C18.8501 21.0607 20.3826 21.7753 21.9122 22.5408C21.4807 23.2538 21.0214 24.2262 20.4411 24.82C18.3656 23.6849 17.0024 22.2154 16.161 19.9849C15.2951 17.6892 15.0128 14.9759 16.054 12.6882C16.6228 11.4385 17.4895 10.4108 18.7969 9.922Z" fill="#FBFBFB"/>
<path d="M29.5885 21.4621C28.09 22.7076 26.8346 24.3482 26.1402 26.1748C25.0316 28.3946 24.5049 30.8783 25.2975 33.2995C25.6079 34.2474 26.1583 35.1075 27.074 35.5708C28.3865 36.2351 29.9482 35.9072 31.3528 35.8853C35.3121 35.8233 37.8985 38.0098 39.1766 41.6695C39.592 42.8591 39.7897 44.0787 39.98 45.3186C40.1386 46.6214 39.9929 48.0839 39.8373 49.3843C39.6783 48.4466 39.4876 47.4935 39.0276 46.6514C38.7478 45.9532 38.4018 45.1527 37.9326 44.561C36.9758 43.3544 34.889 44.1926 33.5403 44.0005C32.051 43.7884 30.612 43.0207 29.712 41.8C28.6965 40.4226 28.5415 38.859 28.8025 37.2146C27.7196 37.2494 26.6408 37.3088 25.5797 37.0463C25.4923 37.023 25.4085 36.9992 25.323 36.9696C23.7837 36.4373 22.5472 35.479 21.8391 33.992C21.1103 32.4619 21.208 30.6478 21.7779 29.0851C23.121 25.4022 26.1574 23.061 29.5885 21.4621Z" fill="url(#paint1_linear_10_56)"/>
<path d="M32.8559 37.1443C33.1621 37.2634 33.4393 37.4514 33.5764 37.7624C33.5864 37.7854 33.5953 37.8089 33.603 37.8329C33.6107 37.8568 33.6171 37.881 33.6223 37.9057C33.6275 37.9302 33.6314 37.955 33.6341 37.98C33.6367 38.005 33.6381 38.03 33.6382 38.0551C33.6383 38.0803 33.6371 38.1054 33.6346 38.1304C33.6321 38.1554 33.6284 38.1802 33.6234 38.2048C33.6183 38.2295 33.612 38.2538 33.6046 38.2778C33.597 38.3017 33.5883 38.3253 33.5784 38.3484C33.4599 38.6258 33.2515 38.7247 32.9808 38.8224C32.9577 38.8308 32.9342 38.8387 32.9109 38.8469C32.8606 38.8233 32.8109 38.7987 32.7601 38.7763C32.5646 38.6894 32.4018 38.6274 32.266 38.4516C32.1512 38.303 32.1031 38.1494 32.1309 37.9602C32.1846 37.5954 32.58 37.3363 32.8559 37.1443Z" fill="#FBFBFB"/>
<path d="M30.8346 37.0736C31.5105 37.0708 32.1832 37.0708 32.8559 37.1444C32.58 37.3363 32.1846 37.5954 32.1309 37.9602C32.1031 38.1495 32.1512 38.303 32.266 38.4516C32.4018 38.6275 32.5646 38.6894 32.7601 38.7763C32.8109 38.7987 32.8606 38.8233 32.9109 38.8469C33.0209 39.3349 33.0333 39.9552 33.4859 40.2755C33.8492 40.5326 34.2803 40.4682 34.6903 40.4042C34.8315 40.3048 34.967 40.1982 35.0967 40.0843C35.6453 39.5993 35.6687 38.9701 35.712 38.2912C36.4322 39.0401 37.0611 39.8058 37.5427 40.7332C37.2157 41.5019 36.7502 42.1781 36.0162 42.6119C35.2626 43.0572 34.3721 43.112 33.5381 42.8824C33.472 42.8636 33.4065 42.8431 33.3413 42.821C33.2762 42.7989 33.2117 42.7752 33.1478 42.75C33.0839 42.7247 33.0207 42.6978 32.9582 42.6693C32.8956 42.641 32.8337 42.6111 32.7726 42.5795C32.7116 42.548 32.6513 42.515 32.5919 42.4806C32.5324 42.4461 32.4739 42.4101 32.4161 42.3728C32.3585 42.3354 32.3018 42.2966 32.2461 42.2564C32.1903 42.2162 32.1356 42.1747 32.0819 42.1318C32.0282 42.0889 31.9756 42.0446 31.9241 41.9991C31.8726 41.9536 31.8223 41.9068 31.7731 41.8588C31.724 41.8108 31.676 41.7616 31.6293 41.7113C31.5825 41.6609 31.537 41.6093 31.4929 41.5567C31.4487 41.504 31.4058 41.4503 31.3643 41.3956C31.3228 41.3408 31.2827 41.2851 31.2439 41.2284C31.2051 41.1716 31.1678 41.1139 31.132 41.0552C31.0961 40.9966 31.0616 40.9372 31.0286 40.8769C30.3275 39.6042 30.4357 38.4209 30.8346 37.0736Z" fill="#FA9A38"/>
<path d="M20.2811 36.7226C20.1457 40.1541 21.3465 43.836 23.7047 46.3718C25.023 47.7893 26.8744 48.9239 28.8524 48.9887C29.7627 49.0185 30.6098 48.7889 31.4628 48.4946C29.492 49.9187 27.3532 51.191 24.822 50.7707C23.2469 50.5091 21.9617 49.591 21.0473 48.2993C20.7364 47.86 20.4807 47.3802 20.2381 46.9007C20.8628 50.181 21.7241 53.5608 24.6559 55.552C25.6472 56.2253 27.0861 56.8207 28.3007 56.5584C28.7735 56.4562 29.1853 56.2242 29.5507 55.9115C30.2361 55.3251 30.7743 54.4997 31.3841 53.8307C32.3771 52.7411 33.4628 51.7438 34.5733 50.7762C34.8404 50.5434 35.284 50.0458 35.6385 50.0015L35.5852 50.0358L35.5346 50.1502L35.5331 50.0777C34.9896 50.7324 34.4196 51.3681 33.9164 52.0552C31.8483 54.8784 30.6175 58.106 30.5488 61.6204L30.4683 62.2647C30.6856 62.2639 30.9029 62.266 31.1201 62.2711C32.2812 62.2968 39.1723 62.6645 39.6586 63.2474C39.733 63.3367 39.7102 63.3142 39.7011 63.4385C39.6373 63.4882 39.5782 63.5246 39.4985 63.5438C38.801 63.712 34.1868 63.1704 33.1285 63.1214C32.3377 63.0848 31.5043 63.0267 30.7145 63.0768C30.3357 63.1009 29.988 63.2969 29.6083 63.347C28.746 63.4609 27.8244 63.4152 26.9535 63.4242C26.8289 62.4096 26.9178 61.4332 27.0112 60.421C26.8167 60.4811 26.6189 60.546 26.42 60.5894C25.4095 60.8097 24.4337 60.4643 23.5901 59.9255C20.6599 58.054 19.3181 54.6343 18.6158 51.3779C18.0829 46.8175 18.1715 40.8991 20.2811 36.7226Z" fill="#502918"/>
<path d="M73.2415 8.60565C75.1658 7.71845 78.8662 6.36033 80.8943 7.12552C81.9239 7.51398 82.4378 8.4674 82.852 9.42031C82.8618 9.4426 82.8709 9.46528 82.8803 9.48769L82.8888 9.5458C83.048 10.5618 83.4148 11.5418 83.5768 12.5644C84.2881 17.0587 83.4972 21.5132 80.8149 25.2549C80.4501 25.7685 80.0587 26.261 79.6406 26.7322C79.3253 27.0838 78.9361 27.4336 78.6692 27.8196C78.2947 28.171 77.8775 28.4717 77.5076 28.825C77.9186 29.8272 78.2474 30.8693 78.6858 31.8574C78.687 31.8773 78.6876 31.8972 78.6891 31.917C78.7376 32.6138 79.0107 33.3318 79.1917 34.006C79.4211 34.8613 79.6269 35.7418 79.7816 36.6139C80.8479 42.6229 81.3254 49.5283 79.2106 55.3781C78.4904 54.4942 78.0016 53.4287 77.2252 52.5878C76.3162 55.6052 74.741 59.133 71.8357 60.7119C70.8621 61.241 69.988 61.2583 68.9406 60.9414C69.0412 61.7498 69.0703 62.5579 69.0654 63.3719C68.2751 63.3732 67.3432 63.4648 66.5691 63.3501C66.0097 63.2673 66.0333 63.0802 65.2431 63.095C63.5873 63.115 61.9341 63.192 60.2836 63.326C59.2683 63.4026 58.2455 63.5444 57.2282 63.5639C56.8958 63.5702 56.588 63.5601 56.2695 63.4527L56.1711 63.3498C56.2167 63.216 56.2574 63.1486 56.3879 63.0807C57.0721 62.7242 64.6937 62.0812 65.85 62.0366C65.6105 61.3098 65.2565 60.6473 64.9674 59.9425C64.298 59.0919 63.55 58.3993 62.5882 57.8886C60.88 56.9815 59.0989 57.0927 57.291 57.6445C57.2735 57.0342 57.2683 56.2539 56.9876 55.7006C57.0113 55.5197 56.9391 55.2513 56.9087 55.0673C56.88 55.2313 56.8514 55.3934 56.8098 55.5549L56.7265 55.5465C56.2708 54.3293 55.5768 52.8095 55.3474 51.5473C55.167 50.5543 55.311 49.5444 55.0316 48.554C54.6679 47.2651 53.9236 46.1143 53.5129 44.8378C53.0816 43.4979 52.8175 42.1199 52.0175 40.9301C51.058 39.5029 49.6556 38.8001 48.0027 38.4835C47.9835 38.4679 47.9611 38.4554 47.9449 38.4368C47.6821 38.1346 47.8156 32.4721 47.8058 31.6345L47.949 31.5305C47.9496 31.5155 47.9526 31.5006 47.9508 31.4858C47.8897 30.9998 47.7924 30.5114 47.8002 30.0187C47.8129 29.2059 47.9738 28.424 47.9552 27.6001L47.8909 27.5943C47.9869 27.1447 47.9478 26.6438 47.9468 26.1837C48.0184 24.7965 47.9785 23.3644 47.9446 21.9749L47.9409 20.3427C48.0207 19.1768 47.9727 17.9553 47.9449 16.7864L47.95 15.7434C47.9937 14.7657 47.9566 13.7697 47.9463 12.7905C47.9186 11.9442 47.9418 11.0894 47.9402 10.2422C49.0726 10.3601 50.2087 10.3205 51.3398 10.4303C54.5136 10.7384 57.5404 11.4784 60.5438 12.5361C61.5475 12.8896 62.5426 13.3578 63.4946 13.8309C63.882 14.0235 64.4029 14.3866 64.8039 14.4946C66.583 12.7603 70.8734 9.27807 73.2415 8.60565Z" fill="#FC6F01"/>
<path d="M56.1247 46.737C56.411 46.7986 57.0619 46.7821 57.2709 46.9387C56.9526 48.0308 56.7827 49.0957 56.6299 50.2193C56.493 49.0541 56.2439 47.9023 56.1247 46.737Z" fill="black"/>
<path d="M71.9514 25.5187C73.2848 26.6925 74.2528 28.8564 74.3644 30.6212C74.4628 32.1766 74.0327 33.8621 72.9733 35.038C72.7727 35.2607 72.5141 35.5327 72.2552 35.6831L72.1982 35.6491L72.0017 35.7159L71.9977 35.5985C72.0325 35.5565 72.0919 35.4909 72.1195 35.4385C72.6266 34.4727 72.1219 32.1185 72.0793 31.0657C72.0196 29.5881 72.227 28.093 72.0156 26.6144C71.9674 26.2777 71.8629 25.9486 71.7912 25.6161L71.9514 25.5187Z" fill="#431A0F"/>
<path d="M47.9552 27.6C50.109 27.7473 52.0196 29.0569 53.4008 30.6441C55.1093 32.6075 55.9426 35.053 55.8816 37.6441C54.4399 34.9335 53.4602 32.9169 50.2885 31.9659C49.5858 31.7551 48.5539 31.8211 47.949 31.5304C47.9496 31.5155 47.9526 31.5005 47.9508 31.4857C47.8897 30.9997 47.7924 30.5113 47.8002 30.0186C47.8129 29.2059 47.9739 28.4239 47.9552 27.6Z" fill="#431A0F"/>
<path d="M47.9446 21.9748C51.9733 22.5493 55.6909 24.5565 58.1495 27.851C58.4742 28.2817 58.7659 28.7337 59.0244 29.2071C55.4148 26.9449 52.1228 26.2968 47.9468 26.1837C48.0184 24.7964 47.9785 23.3644 47.9446 21.9748Z" fill="#431A0F"/>
<path d="M47.9463 12.7905C54.2234 12.9909 59.5464 14.3317 64.8587 17.7898C66.0595 18.5715 67.3092 19.438 68.3399 20.4367C67.133 19.7826 65.9235 19.1086 64.6612 18.5656C60.9411 16.9651 56.8988 16.257 52.8796 15.9703C51.9345 15.8982 50.9882 15.8466 50.0408 15.8155C49.3529 15.7961 48.6317 15.8241 47.95 15.7434C47.9937 14.7657 47.9566 13.7697 47.9463 12.7905Z" fill="#431A0F"/>
<path d="M47.9449 16.7864C53.2559 16.7622 59.6278 18.5743 63.462 22.3756C65.0695 23.9694 66.0708 25.9194 66.0657 28.2118C66.0637 29.1729 65.9 30.0865 65.6936 31.022C65.0431 27.5142 63.5555 25.1568 60.5865 23.1259C57.8074 21.2251 54.5476 20.2826 51.1901 20.2634C50.1055 20.2572 49.0262 20.3755 47.9409 20.3426C48.0208 19.1768 47.9727 17.9552 47.9449 16.7864Z" fill="#431A0F"/>
<path d="M69.7852 26.1809C70.765 28.3656 71.3807 30.8923 70.5077 33.2211C70.1451 34.188 69.4914 35.0327 68.5222 35.4511C67.1227 36.0552 65.6168 35.6022 64.164 35.5498C60.7499 35.4266 58.3498 37.922 57.1187 40.888C56.5386 42.2858 56.1549 43.9427 56.1014 45.4616C55.8631 45.1017 55.8172 44.5929 55.772 44.169C55.4939 41.5637 56.1652 39.0772 56.5953 36.5347C56.7613 35.5332 56.8913 34.527 56.9851 33.5161C57.0779 32.4064 56.9943 31.348 56.8234 30.2534C57.8015 31.287 58.452 32.2415 58.9848 33.5687C59.7774 33.0475 60.4445 32.1686 60.9127 31.3548C61.8113 29.7933 61.9575 28.068 61.4827 26.3425C61.5498 26.4097 61.6152 26.4784 61.6789 26.5488C62.5923 27.5455 63.1124 28.7308 63.0469 30.0976C62.9433 32.2581 61.5989 33.7398 60.0874 35.1274C60.947 34.72 61.8146 34.3344 62.7193 34.0366C64.5517 33.4335 66.5633 33.1225 68.0451 31.7815C69.0684 30.8556 69.6703 29.4967 69.7617 28.1268C69.8048 27.4797 69.7484 26.829 69.7852 26.1809Z" fill="#FBFBFB"/>
<path d="M65.6203 21.6012C67.883 22.5296 70.3217 23.6396 71.9514 25.5187L71.7912 25.6161C71.8629 25.9485 71.9674 26.2777 72.0156 26.6144C72.227 28.093 72.0196 29.588 72.0792 31.0657C72.1219 32.1185 72.6266 34.4727 72.1194 35.4385C72.0919 35.4909 72.0325 35.5565 71.9977 35.5985L72.0017 35.7158L72.1982 35.6491L72.2552 35.6831C71.7709 36.1026 71.2014 36.3867 70.6317 36.6711C70.3483 39.4065 69.3599 42.0745 67.1741 43.8604C65.5842 45.1594 63.5206 46.0003 61.4626 46.087C60.5678 46.1248 59.6671 46.0492 58.7747 46.0945C58.3459 46.1163 57.9611 46.323 57.5376 46.3585C57.4473 46.5497 57.3468 46.7417 57.2709 46.9387C57.0619 46.782 56.411 46.7985 56.1247 46.7369C56.1303 46.3098 56.1248 45.8881 56.1014 45.4617C56.1549 43.9427 56.5385 42.2858 57.1187 40.888C58.3498 37.922 60.7498 35.4266 64.164 35.5498C65.6168 35.6022 67.1227 36.0552 68.5222 35.4511C69.4913 35.0327 70.1451 34.188 70.5076 33.2211C71.3807 30.8923 70.7649 28.3656 69.7852 26.181C69.0052 24.1982 67.2487 22.865 65.6203 21.6012Z" fill="url(#paint2_linear_10_56)"/>
<path d="M63.4247 36.4478C63.6161 36.4295 63.792 36.4366 63.9772 36.4957C64.5791 36.6879 65.0441 37.2944 65.3298 37.8354C65.3588 37.8901 65.3865 37.9456 65.4127 38.0017C65.4391 38.0578 65.464 38.1146 65.4875 38.1719C65.511 38.2293 65.5331 38.2872 65.5537 38.3456C65.5744 38.404 65.5936 38.4629 65.6113 38.5224C65.6291 38.5817 65.6453 38.6415 65.6601 38.7017C65.6749 38.7619 65.6882 38.8224 65.7001 38.8833C65.7118 38.9442 65.7221 39.0053 65.7309 39.0666C65.7396 39.1279 65.7469 39.1895 65.7526 39.2512C65.7584 39.3129 65.7626 39.3747 65.7653 39.4366C65.768 39.4986 65.7692 39.5605 65.7687 39.6226C65.7684 39.6845 65.7665 39.7464 65.7631 39.8083C65.7596 39.8702 65.7547 39.9319 65.7482 39.9936C65.7417 40.0552 65.7337 40.1166 65.7242 40.1779C65.7147 40.2391 65.7037 40.3001 65.6912 40.3608C65.6786 40.4215 65.6646 40.4819 65.649 40.5418C65.6336 40.6019 65.6166 40.6615 65.5981 40.7207C65.5799 40.7793 65.5601 40.8375 65.539 40.8952C65.5178 40.9529 65.4952 41.01 65.4711 41.0665C65.4471 41.1231 65.4216 41.179 65.3947 41.2342C65.3678 41.2895 65.3396 41.344 65.3101 41.3979C65.2804 41.4517 65.2495 41.5048 65.2172 41.5571C65.185 41.6094 65.1514 41.6609 65.1165 41.7115C65.0817 41.762 65.0456 41.8117 65.0083 41.8605C64.971 41.9093 64.9324 41.9572 64.8926 42.0041C64.8528 42.0509 64.812 42.0967 64.77 42.1415C64.7279 42.1863 64.6847 42.23 64.6405 42.2727C64.5962 42.3153 64.551 42.3568 64.5047 42.3971C64.4583 42.4375 64.411 42.4767 64.3627 42.5147C64.3144 42.5527 64.2652 42.5895 64.215 42.6249C64.1649 42.6605 64.1139 42.6947 64.062 42.7276C64.0102 42.7606 63.9575 42.7923 63.904 42.8226C63.8506 42.8529 63.7964 42.8818 63.7415 42.9094C62.8268 43.3665 61.6736 43.4766 60.7026 43.1409C59.651 42.7776 59.0124 42.014 58.5373 41.0505C58.4156 40.7307 58.348 40.4814 58.4028 40.1386C58.5401 39.2789 59.4339 38.3193 60.1255 37.817C60.301 37.6895 60.4133 37.624 60.6295 37.6577C60.9715 38.1008 60.538 39.2136 60.7524 39.8241C60.865 40.1449 61.0994 40.4154 61.4136 40.5527C61.6783 40.6682 61.9992 40.6437 62.2594 40.5284C62.5608 40.3947 62.8506 40.0615 62.9632 39.754C63.3296 38.7544 62.0727 37.8554 61.6986 37.0117L61.6613 36.9258C62.2295 36.6882 62.8236 36.5685 63.4247 36.4478Z" fill="#FA9A38"/>
<path d="M67.4981 37.209C68.5552 37.2017 69.6252 36.9804 70.6317 36.6711C70.3483 39.4065 69.3599 42.0746 67.1742 43.8604C65.5843 45.1594 63.5206 46.0003 61.4626 46.0871C60.5678 46.1248 59.6671 46.0492 58.7747 46.0945C58.346 46.1163 57.9611 46.323 57.5376 46.3585C57.9802 45.2104 58.5482 44.4173 59.6109 43.7809C60.2162 43.9095 60.7852 44.1136 61.4079 44.1689C62.8027 44.2928 64.2094 43.7926 65.2646 42.8859C66.96 41.4289 67.3291 39.3308 67.4981 37.209Z" fill="#FBFBFB"/>
<path d="M61.4443 46.8304C63.0186 47.7738 65.0971 48.1984 66.9206 48.2504C69.0082 48.3099 71.0213 47.6054 72.5382 46.1513C74.4769 44.2928 75.2221 41.6573 75.3225 39.0406C75.3518 38.2767 75.2699 37.5115 75.2883 36.7476C77.2122 40.8907 78.1589 45.1848 77.6793 49.7658C77.5799 50.7155 77.3897 51.6481 77.2252 52.5877C76.3162 55.6052 74.741 59.133 71.8358 60.7118C70.8621 61.2409 69.988 61.2582 68.9406 60.9414C69.0412 61.7497 69.0703 62.5578 69.0654 63.3718C68.2751 63.3731 67.3432 63.4647 66.5691 63.3501C66.0097 63.2672 66.0333 63.0802 65.2431 63.095C63.5873 63.1149 61.9341 63.1919 60.2836 63.326C59.2683 63.4025 58.2455 63.5444 57.2283 63.5638C56.8958 63.5701 56.588 63.5601 56.2695 63.4526L56.1711 63.3497C56.2167 63.216 56.2574 63.1486 56.3879 63.0807C57.0721 62.7242 64.6937 62.0811 65.85 62.0365C65.6105 61.3097 65.2565 60.6472 64.9674 59.9425C64.6614 57.1908 63.0275 54.534 61.5873 52.223C63.3151 53.9943 66.1254 56.6729 68.6179 57.0077C69.5862 57.1379 70.4687 56.7772 71.2252 56.1977C73.9812 54.086 75.5379 50.1678 75.9935 46.8138C75.4974 47.8033 74.9857 48.829 74.1451 49.5763C74.0682 49.6439 73.9897 49.7096 73.9096 49.7733C73.8294 49.837 73.7476 49.8986 73.6644 49.9582C73.5812 50.0177 73.4965 50.0752 73.4103 50.1306C73.3242 50.1859 73.2367 50.239 73.1479 50.29C73.0591 50.3409 72.9691 50.3896 72.8778 50.4361C72.7866 50.4825 72.6943 50.5267 72.6008 50.5685C72.5074 50.6103 72.4129 50.6498 72.3175 50.6869C72.2221 50.7239 72.1258 50.7586 72.0286 50.7909C71.9315 50.8232 71.8336 50.853 71.7349 50.8803C71.6363 50.9077 71.537 50.9326 71.4371 50.9549C71.3371 50.9773 71.2367 50.9972 71.1359 51.0146C71.035 51.0319 70.9337 51.0467 70.8321 51.059C70.7304 51.0713 70.6285 51.081 70.5263 51.0881C70.4242 51.0953 70.322 51.0999 70.2197 51.1019C70.1173 51.104 70.015 51.1035 69.9127 51.1004C69.8103 51.0973 69.7081 51.0917 69.606 51.0835C66.9011 50.8882 63.2237 48.8983 61.4443 46.8304Z" fill="#431A0F"/>
<path d="M73.2415 8.60565C75.1658 7.71845 78.8662 6.36033 80.8943 7.12552C81.9239 7.51398 82.4378 8.4674 82.8521 9.42031C82.8618 9.4426 82.8709 9.46528 82.8803 9.48769L82.8888 9.5458C83.048 10.5618 83.4148 11.5418 83.5768 12.5644C84.2881 17.0587 83.4972 21.5132 80.815 25.2549C80.4502 25.7685 80.0587 26.261 79.6406 26.7322C79.3253 27.0838 78.9361 27.4336 78.6692 27.8196C78.2947 28.171 77.8775 28.4717 77.5076 28.825C76.9679 27.446 76.2505 26.0328 75.3947 24.826C74.8353 24.1868 74.3902 23.451 73.9262 22.742C75.302 21.9569 76.7151 21.3578 78.1451 20.6866C76.002 20.4682 73.8723 20.4217 71.7287 20.1399C73.4424 18.5794 75.2265 17.0807 76.9818 15.5668L72.9455 17.0462C71.8602 17.4435 70.7823 17.8892 69.6412 18.098C68.0132 16.8275 66.5904 15.5805 64.8039 14.4946C66.583 12.7603 70.8734 9.27807 73.2415 8.60565Z" fill="#FBFBFB"/>
<path d="M73.2415 8.60559C73.8039 8.70892 74.3643 8.79073 74.9233 8.91532C75.3423 9.0086 75.7948 9.16115 76.2154 9.21411C74.9449 10.7349 73.7565 12.3197 72.5655 13.9026C71.5366 15.2704 70.4923 16.6078 69.6412 18.098C68.0132 16.8275 66.5904 15.5804 64.8039 14.4945C66.583 12.7602 70.8734 9.27801 73.2415 8.60559Z" fill="#431A0F"/>
<path d="M73.2415 8.60565C75.1658 7.71845 78.8662 6.36033 80.8943 7.12552C81.9239 7.51398 82.4378 8.4674 82.852 9.42031C82.8618 9.4426 82.8709 9.46528 82.8803 9.48769L82.8888 9.5458C83.048 10.5618 83.4148 11.5418 83.5768 12.5644C84.2881 17.0587 83.4972 21.5132 80.8149 25.2549C80.4501 25.7685 80.0587 26.261 79.6406 26.7322C79.3253 27.0838 78.936 27.4336 78.6692 27.8196C78.2947 28.171 77.8775 28.4717 77.5076 28.825C76.9679 27.446 76.2505 26.0328 75.3947 24.826C77.2779 23.5048 78.556 22.7536 79.6221 20.6006C80.7016 18.4212 81.1578 15.6676 80.3591 13.3252C79.6367 11.2066 78.1513 10.1587 76.2154 9.21416C75.7948 9.16121 75.3423 9.00866 74.9233 8.91538C74.3642 8.79079 73.8039 8.70898 73.2415 8.60565Z" fill="#8F5124"/>
<path d="M82.8802 9.48767C83.9545 10.044 86.1881 12.7855 87.1631 13.812C89.2079 15.933 91.2255 18.0794 93.2159 20.2515C94.0539 21.1732 94.9737 22.0975 95.7256 23.0878C95.7191 22.4256 95.6801 21.745 95.7497 21.0862C95.8269 22.58 95.7824 24.095 95.7832 25.591L95.7864 33.3395L95.7904 57.1272L95.794 71.6302C95.7953 74.6768 96.0217 77.8672 95.4999 80.8761C95.4638 81.0824 95.4241 81.2879 95.3809 81.4928C95.3377 81.6976 95.291 81.9016 95.2406 82.1049C95.1903 82.3081 95.1364 82.5104 95.0789 82.7117C95.0216 82.9131 94.9607 83.1133 94.8962 83.3125C94.8318 83.5118 94.7639 83.7098 94.6925 83.9066C94.6212 84.1035 94.5465 84.299 94.4684 84.4932C94.3902 84.6875 94.3087 84.8803 94.2238 85.0717C94.1389 85.2631 94.0507 85.4529 93.9592 85.6412C93.8676 85.8295 93.7728 86.0162 93.6748 86.2011C93.5767 86.3861 93.4755 86.5694 93.371 86.7508C93.2666 86.9323 93.159 87.1119 93.0483 87.2896C92.9376 87.4673 92.8238 87.643 92.707 87.8167C92.5901 87.9904 92.4702 88.162 92.3474 88.3315C92.2245 88.5011 92.0988 88.6684 91.97 88.8336C91.8413 88.9987 91.7098 89.1615 91.5754 89.322C91.441 89.4827 91.3039 89.6408 91.164 89.7966C90.9978 89.9837 90.8279 90.1674 90.6541 90.3475C90.4804 90.5276 90.303 90.704 90.1219 90.8768C89.9409 91.0496 89.7564 91.2185 89.5683 91.3836C89.3802 91.5487 89.1888 91.7099 88.994 91.867C88.7993 92.0242 88.6014 92.1773 88.4003 92.3262C88.1992 92.4752 87.995 92.6199 87.7879 92.7604C87.5808 92.9009 87.3709 93.037 87.1582 93.1689C86.9455 93.3006 86.7301 93.4279 86.512 93.5507C86.294 93.6737 86.0736 93.7919 85.8507 93.9056C85.6277 94.0193 85.4025 94.1283 85.175 94.2327C84.9476 94.3371 84.7181 94.4367 84.4865 94.5316C84.2549 94.6264 84.0215 94.7164 83.7861 94.8015C83.5508 94.8867 83.3138 94.967 83.0752 95.0423C82.8366 95.1177 82.5965 95.188 82.3548 95.2534C82.1133 95.3188 81.8705 95.3792 81.6264 95.4345C81.3823 95.4898 81.1372 95.54 80.8911 95.5851C79.709 95.7976 78.5167 95.8682 77.3188 95.9268C74.3077 96.074 71.2329 95.954 68.2145 95.9523L51.2334 95.9496L39.2705 95.9239C38.224 95.9179 37.1776 95.9182 36.1311 95.9248C35.2872 95.9334 34.4203 95.9786 33.5788 95.8969C33.4177 95.4372 32.9583 95.0336 32.6241 94.6905C31.5361 93.5739 30.3811 92.532 29.2733 91.4359C25.965 88.1139 22.6306 84.8183 19.2701 81.5491L13.8098 76.0752C12.8833 75.1429 11.9963 74.1424 11.0065 73.2791C11.5551 71.3831 12.1678 69.6064 13.3824 68.0158C13.7361 73.0963 16.3051 76.7189 19.562 80.3726C18.3624 77.3267 18.3154 75.479 18.6006 72.2743C19.4377 73.7074 20.3118 75.0439 21.4131 76.2886C24.6055 79.8964 29.5668 82.7648 34.2068 84.0115C34.6309 84.1255 35.1812 84.2751 35.6202 84.2214C36.6505 85.3166 37.5669 86.4427 38.7326 87.4094C40.773 89.1016 43.1342 90.1353 45.6475 90.8911C46.3432 91.1003 47.0811 91.3369 47.812 91.3616C48.7011 91.3917 49.6093 91.053 50.4423 90.7764C53.1934 89.8625 55.8584 88.6571 57.9597 86.6017C58.7158 85.8621 59.3253 85.0324 60.0036 84.2286C60.3876 84.2078 60.8083 84.0772 61.1802 83.9782C67.4996 82.2957 73.6711 78.6646 77.0383 72.9179C77.7354 75.5107 77.2454 77.8146 76.4627 80.3155C79.8311 75.9343 81.5337 73.324 81.8658 67.5519C83.299 69.1731 83.6967 71.1018 84.3206 73.0935C85.7162 68.7549 85.6746 66.1858 83.9708 61.9307C86.929 63.9262 88.2208 65.8742 89.3692 69.1931C89.4052 69.0707 89.4369 68.9472 89.4644 68.8226C89.8204 67.2027 89.8694 65.4509 89.7578 63.8C89.4339 59.0096 87.8802 55.5685 85.3173 51.6047C87.6762 52.3679 89.661 53.6368 91.1512 55.6442C91.5513 56.1831 91.8866 56.7679 92.2502 57.3317C92.0969 56.3656 91.9688 55.397 91.724 54.4485C90.8464 51.046 88.8714 48.1901 86.994 45.2772C86.2309 44.0931 85.3668 42.9002 84.7763 41.621C84.2579 40.4979 84.1724 39.2795 83.8091 38.113C82.6847 34.503 81.0602 30.7766 78.6692 27.8196C78.936 27.4336 79.3253 27.0838 79.6405 26.7322C80.0587 26.2609 80.4501 25.7685 80.8149 25.2549C83.4971 21.5132 84.2881 17.0586 83.5768 12.5644C83.4148 11.5418 83.048 10.5618 82.8888 9.54578L82.8802 9.48767Z" fill="url(#paint3_linear_10_56)"/>
<defs>
<linearGradient id="paint0_linear_10_56" x1="64.4356" y1="79.068" x2="20.4229" y2="-3.29802" gradientUnits="userSpaceOnUse">
<stop stop-color="#EB5F00"/>
<stop offset="1" stop-color="#EC9B40"/>
</linearGradient>
<linearGradient id="paint1_linear_10_56" x1="43.5348" y1="38.8718" x2="21.465" y2="30.0412" gradientUnits="userSpaceOnUse">
<stop stop-color="#270C02"/>
<stop offset="1" stop-color="#562C1B"/>
</linearGradient>
<linearGradient id="paint2_linear_10_56" x1="56.0978" y1="34.4463" x2="72.293" y2="34.3218" gradientUnits="userSpaceOnUse">
<stop/>
<stop offset="1" stop-color="#491C10"/>
</linearGradient>
<linearGradient id="paint3_linear_10_56" x1="95.3691" y1="84.6799" x2="40.2968" y2="37.0619" gradientUnits="userSpaceOnUse">
<stop stop-color="#BF5113"/>
<stop offset="1" stop-color="#CD6B23"/>
</linearGradient>
</defs>
</svg>
